<?xml version="1.0" encoding="UTF-8" standalone="no"?>
<!DOCTYPE svg PUBLIC "-//W3C//DTD SVG 1.1//EN" "http://www.w3.org/Graphics/SVG/1.1/DTD/svg11.dtd">
<svg width="100%" height="100%" viewBox="0 0 567 567" version="1.1" xmlns="http://www.w3.org/2000/svg" xmlns:xlink="http://www.w3.org/1999/xlink" xml:space="preserve" xmlns:serif="http://www.serif.com/" style="fill-rule:evenodd;clip-rule:evenodd;stroke-linecap:round;">
    <g id="layer1" transform="matrix(2.834646,0,0,2.834646,0,0)">
        <path id="path2" d="M29.032,192.355C29.032,192.355 31.178,195.574 34.052,189.463C37.083,184.484 83.37,20.158 83.346,12.96C83.338,10.534 83.166,10.525 83.166,10.525" style="fill:none;fill-rule:nonzero;stroke:black;stroke-width:10px;"/>
        <path id="path3" d="M10.008,114.323C10.008,114.323 9.593,118.588 13.516,117.962C73.892,108.338 139.487,101.464 189.979,92.339" style="fill:none;fill-rule:nonzero;stroke:black;stroke-width:10px;"/>
        <path id="path4" d="M68.257,128.291C68.257,128.291 66.806,131.083 71.19,131.434C75.574,131.784 113.783,116.407 127.677,94.781C142.632,71.504 145.759,49.668 137.44,45.118C126.565,39.171 79.136,60.244 77.599,165.858C77.264,188.926 99.13,145.714 102.869,153.926C104.438,157.372 107.022,173.155 109.467,173.303C147.11,175.575 173.058,110.032 169.012,70.103C162.556,6.373 58.783,4.407 35.631,105.173C19.971,173.329 63.54,184.463 63.54,184.463" style="fill:none;fill-rule:nonzero;stroke:black;stroke-width:10px;stroke-linejoin:round;"/>
    </g>
</svg>
