<?xml version="1.0" encoding="UTF-8" standalone="no"?>
<!-- Created with Inkscape (http://www.inkscape.org/) -->

<svg
   width="200mm"
   height="200mm"
   viewBox="0 0 200 200"
   version="1.1"
   id="svg1"
   xml:space="preserve"
   inkscape:version="1.4 (e7c3feb1, 2024-10-09)"
   sodipodi:docname="unterschrift.svg"
   inkscape:export-filename="unterschrift_icon.svg"
   inkscape:export-xdpi="96"
   inkscape:export-ydpi="96"
   xmlns:inkscape="http://www.inkscape.org/namespaces/inkscape"
   xmlns:sodipodi="http://sodipodi.sourceforge.net/DTD/sodipodi-0.dtd"
   xmlns="http://www.w3.org/2000/svg"
   xmlns:svg="http://www.w3.org/2000/svg"><sodipodi:namedview
     id="namedview1"
     pagecolor="#505050"
     bordercolor="#eeeeee"
     borderopacity="1"
     inkscape:showpageshadow="0"
     inkscape:pageopacity="0"
     inkscape:pagecheckerboard="0"
     inkscape:deskcolor="#505050"
     inkscape:document-units="mm"
     inkscape:zoom="0.64620243"
     inkscape:cx="337.35559"
     inkscape:cy="123.02646"
     inkscape:window-width="2560"
     inkscape:window-height="1440"
     inkscape:window-x="0"
     inkscape:window-y="0"
     inkscape:window-maximized="0"
     inkscape:current-layer="layer1" /><defs
     id="defs1" /><g
     inkscape:label="Layer 1"
     inkscape:groupmode="layer"
     id="layer1"><path
       style="fill:none;stroke:#ffffff;stroke-width:10;stroke-linecap:round;stroke-dasharray:none;stroke-dashoffset:10.6666;stroke-opacity:1;paint-order:stroke fill markers"
       d="m 29.032472,192.35547 c 0,0 2.145214,3.21851 5.019392,-2.89267 3.031502,-4.97846 49.31854,-169.304548 49.294224,-176.503111 -0.0082,-2.425687 -0.179854,-2.434814 -0.179854,-2.434814"
       id="path2"
       sodipodi:nodetypes="ccsc"
       inkscape:label="3_utd_t_vertical" /><path
       style="fill:none;stroke:#ffffff;stroke-width:10;stroke-linecap:round;stroke-dasharray:none;stroke-dashoffset:10.6666;stroke-opacity:1;paint-order:stroke fill markers"
       d="m 10.008078,114.32273 c 0,0 -0.4153229,4.26507 3.508175,3.63966 C 73.89226,108.33841 139.48739,101.46407 189.97895,92.339487"
       id="path3"
       sodipodi:nodetypes="csc"
       inkscape:label="2_ltr_t_horizontal" /><path
       style="fill:none;stroke:#ffffff;stroke-width:10;stroke-linecap:round;stroke-linejoin:round;stroke-dasharray:none;stroke-dashoffset:10.6666;stroke-opacity:1;paint-order:stroke fill markers"
       d="m 68.256608,128.29148 c 0,0 -1.450885,2.79142 2.933446,3.14205 4.384331,0.35063 42.593336,-15.02612 56.487276,-36.65278 14.95421,-23.277041 18.08145,-45.112582 9.76263,-49.662303 -10.87493,-5.947709 -58.303918,15.125191 -59.840703,120.739673 -0.335652,23.06747 21.531161,-20.14453 25.269713,-11.93214 1.56864,3.44581 4.15264,19.2291 6.59839,19.37674 37.64228,2.27238 63.59018,-63.27035 59.5451,-103.19952 C 162.55622,6.3733714 58.782917,4.4073844 35.630867,105.17262 19.971013,173.32939 63.539553,184.4628 63.539553,184.4628"
       id="path4"
       sodipodi:nodetypes="cssssssssc"
       inkscape:label="1_h" /></g></svg>
