<?xml version="1.0" encoding="UTF-8" standalone="no"?>
<!-- Created with Inkscape (http://www.inkscape.org/) -->

<svg
   version="1.1"
   id="svg1"
   width="576"
   height="480"
   viewBox="0 0 576 480"
   sodipodi:docname="Gini_Get.pdf"
   xmlns:inkscape="http://www.inkscape.org/namespaces/inkscape"
   xmlns:sodipodi="http://sodipodi.sourceforge.net/DTD/sodipodi-0.dtd"
   xmlns="http://www.w3.org/2000/svg"
   xmlns:svg="http://www.w3.org/2000/svg">
  <defs
     id="defs1">
    <clipPath
       clipPathUnits="userSpaceOnUse"
       id="clipPath1">
      <path
         d="M 0,0 H 433 V 360 H 0 Z"
         id="path1" />
    </clipPath>
    <clipPath
       clipPathUnits="userSpaceOnUse"
       id="clipPath2">
      <path
         d="M 0,0 H 433 V 360 H 0 Z"
         id="path2" />
    </clipPath>
    <clipPath
       clipPathUnits="userSpaceOnUse"
       id="clipPath3">
      <path
         d="M 0,0 H 433 V 360 H 0 Z"
         id="path3" />
    </clipPath>
    <clipPath
       clipPathUnits="userSpaceOnUse"
       id="clipPath4">
      <path
         d="M 0,0 H 433 V 360 H 0 Z"
         id="path4" />
    </clipPath>
    <clipPath
       clipPathUnits="userSpaceOnUse"
       id="clipPath5">
      <path
         d="M 0,0 H 433 V 360 H 0 Z"
         id="path5" />
    </clipPath>
    <clipPath
       clipPathUnits="userSpaceOnUse"
       id="clipPath6">
      <path
         d="M 0,0 H 433 V 360 H 0 Z"
         id="path6" />
    </clipPath>
    <clipPath
       clipPathUnits="userSpaceOnUse"
       id="clipPath7">
      <path
         d="M 0,0 H 433 V 360 H 0 Z"
         id="path7" />
    </clipPath>
    <clipPath
       clipPathUnits="userSpaceOnUse"
       id="clipPath8">
      <path
         d="M 0,0 H 433 V 360 H 0 Z"
         id="path8" />
    </clipPath>
    <clipPath
       clipPathUnits="userSpaceOnUse"
       id="clipPath9">
      <path
         d="M 0,0 H 433 V 360 H 0 Z"
         id="path9" />
    </clipPath>
    <clipPath
       clipPathUnits="userSpaceOnUse"
       id="clipPath10">
      <path
         d="M 0,0 H 433 V 360 H 0 Z"
         id="path10" />
    </clipPath>
    <clipPath
       clipPathUnits="userSpaceOnUse"
       id="clipPath11">
      <path
         d="M 0,0 H 433 V 360 H 0 Z"
         id="path11" />
    </clipPath>
    <clipPath
       clipPathUnits="userSpaceOnUse"
       id="clipPath12">
      <path
         d="M 0,0 H 433 V 360 H 0 Z"
         id="path12" />
    </clipPath>
    <clipPath
       clipPathUnits="userSpaceOnUse"
       id="clipPath13">
      <path
         d="M 0,0 H 433 V 360 H 0 Z"
         id="path13" />
    </clipPath>
    <clipPath
       clipPathUnits="userSpaceOnUse"
       id="clipPath14">
      <path
         d="M 0,0 H 433 V 360 H 0 Z"
         id="path14" />
    </clipPath>
    <clipPath
       clipPathUnits="userSpaceOnUse"
       id="clipPath15">
      <path
         d="M 0,0 H 433 V 360 H 0 Z"
         id="path15" />
    </clipPath>
    <clipPath
       clipPathUnits="userSpaceOnUse"
       id="clipPath16">
      <path
         d="M 0,0 H 433 V 360 H 0 Z"
         id="path16" />
    </clipPath>
    <clipPath
       clipPathUnits="userSpaceOnUse"
       id="clipPath17">
      <path
         d="M 0,0 H 433 V 360 H 0 Z"
         id="path17" />
    </clipPath>
    <clipPath
       clipPathUnits="userSpaceOnUse"
       id="clipPath18">
      <path
         d="M 0,0 H 433 V 360 H 0 Z"
         id="path18" />
    </clipPath>
    <clipPath
       clipPathUnits="userSpaceOnUse"
       id="clipPath19">
      <path
         d="M 0,0 H 433 V 360 H 0 Z"
         id="path19" />
    </clipPath>
    <clipPath
       clipPathUnits="userSpaceOnUse"
       id="clipPath20">
      <path
         d="M 0,0 H 433 V 360 H 0 Z"
         id="path20" />
    </clipPath>
    <clipPath
       clipPathUnits="userSpaceOnUse"
       id="clipPath21">
      <path
         d="M 0,0 H 433 V 360 H 0 Z"
         id="path21" />
    </clipPath>
    <clipPath
       clipPathUnits="userSpaceOnUse"
       id="clipPath22">
      <path
         d="M 0,0 H 433 V 360 H 0 Z"
         id="path22" />
    </clipPath>
    <clipPath
       clipPathUnits="userSpaceOnUse"
       id="clipPath23">
      <path
         d="M 0,0 H 433 V 360 H 0 Z"
         id="path23" />
    </clipPath>
    <clipPath
       clipPathUnits="userSpaceOnUse"
       id="clipPath47">
      <path
         d="M 39.27,63.012 H 426.532 V 317.621 H 39.27 Z"
         transform="scale(1.3333333)"
         id="path47" />
    </clipPath>
    <clipPath
       clipPathUnits="userSpaceOnUse"
       id="clipPath48">
      <path
         d="M 0,0 H 433 V 360 H 0 Z"
         transform="matrix(1,0,0,0.99935065,-18.940002,-308.88928)"
         id="path48" />
    </clipPath>
    <clipPath
       clipPathUnits="userSpaceOnUse"
       id="clipPath49">
      <path
         d="M 0,0 H 433 V 360 H 0 Z"
         transform="rotate(45,427.33992,94.902548)"
         id="path49" />
    </clipPath>
    <clipPath
       clipPathUnits="userSpaceOnUse"
       id="clipPath50">
      <path
         d="M 0,0 H 433 V 360 H 0 Z"
         transform="rotate(44.999995,477.20992,-4.2491991)"
         id="path50" />
    </clipPath>
    <clipPath
       clipPathUnits="userSpaceOnUse"
       id="clipPath51">
      <path
         d="M 0,0 H 433 V 360 H 0 Z"
         transform="rotate(45,615.82492,-328.27288)"
         id="path51" />
    </clipPath>
    <clipPath
       clipPathUnits="userSpaceOnUse"
       id="clipPath52">
      <path
         d="M 0,0 H 433 V 360 H 0 Z"
         transform="matrix(1,0,0,1.0068246,-211.72,-353.80825)"
         id="path52" />
    </clipPath>
    <clipPath
       clipPathUnits="userSpaceOnUse"
       id="clipPath53">
      <path
         d="M 0,0 H 433 V 360 H 0 Z"
         transform="matrix(0,1.0079103,-1,0,228.67,-13.193545)"
         id="path53" />
    </clipPath>
    <clipPath
       clipPathUnits="userSpaceOnUse"
       id="clipPath54">
      <path
         d="M 0,0 H 433 V 360 H 0 Z"
         transform="matrix(1,0,0,0.99990493,-98.280002,-41.736034)"
         id="path54" />
    </clipPath>
    <clipPath
       clipPathUnits="userSpaceOnUse"
       id="clipPath55">
      <path
         d="M 0,0 H 433 V 360 H 0 Z"
         id="path55" />
    </clipPath>
    <clipPath
       clipPathUnits="userSpaceOnUse"
       id="clipPath56">
      <path
         d="M 0,0 H 433 V 360 H 0 Z"
         id="path56" />
    </clipPath>
    <clipPath
       clipPathUnits="userSpaceOnUse"
       id="clipPath57">
      <path
         d="M 0,0 H 433 V 360 H 0 Z"
         id="path57" />
    </clipPath>
    <clipPath
       clipPathUnits="userSpaceOnUse"
       id="clipPath58">
      <path
         d="M 0,0 H 433 V 360 H 0 Z"
         id="path58" />
    </clipPath>
    <clipPath
       clipPathUnits="userSpaceOnUse"
       id="clipPath59">
      <path
         d="M 0,0 H 433 V 360 H 0 Z"
         transform="matrix(1,0,0,0.99991011,-179.26,-40.966318)"
         id="path59" />
    </clipPath>
    <clipPath
       clipPathUnits="userSpaceOnUse"
       id="clipPath60">
      <path
         d="M 0,0 H 433 V 360 H 0 Z"
         transform="matrix(1,0,0,0.99980446,-229.84,-40.96199)"
         id="path60" />
    </clipPath>
    <clipPath
       clipPathUnits="userSpaceOnUse"
       id="clipPath61">
      <path
         d="M 0,0 H 433 V 360 H 0 Z"
         transform="matrix(1,0,0,1.010475,-284.73001,-41.39916)"
         id="path61" />
    </clipPath>
    <clipPath
       clipPathUnits="userSpaceOnUse"
       id="clipPath62">
      <path
         d="M 0,0 H 433 V 360 H 0 Z"
         transform="matrix(1,0,0,0.99953577,-345.96,-40.950981)"
         id="path62" />
    </clipPath>
    <clipPath
       clipPathUnits="userSpaceOnUse"
       id="clipPath63">
      <path
         d="M 0,0 H 433 V 360 H 0 Z"
         transform="matrix(1,0,0,1.0043242,-59.315002,-14.663134)"
         id="path63" />
    </clipPath>
  </defs>
  <sodipodi:namedview
     id="namedview1"
     pagecolor="#505050"
     bordercolor="#eeeeee"
     borderopacity="1"
     inkscape:showpageshadow="0"
     inkscape:pageopacity="0"
     inkscape:pagecheckerboard="0"
     inkscape:deskcolor="#505050">
    <inkscape:page
       x="0"
       y="0"
       inkscape:label="1"
       id="page1"
       width="576"
       height="480"
       margin="0"
       bleed="0" />
  </sodipodi:namedview>
  <g
     id="g1"
     inkscape:groupmode="layer"
     inkscape:label="1">
    <g
       id="g46"
       clip-path="url(#clipPath47)">
      <path
         d="M 39.27,277.121 H 426.52"
         style="fill:none;stroke:#ebebeb;stroke-width:0.53;stroke-linecap:butt;stroke-linejoin:round;stroke-miterlimit:10;stroke-dasharray:none;stroke-opacity:1"
         transform="scale(1.3333333)"
         clip-path="url(#clipPath1)"
         id="path24" />
      <path
         d="M 39.27,219.25 H 426.52"
         style="fill:none;stroke:#ebebeb;stroke-width:0.53;stroke-linecap:butt;stroke-linejoin:round;stroke-miterlimit:10;stroke-dasharray:none;stroke-opacity:1"
         transform="scale(1.3333333)"
         clip-path="url(#clipPath2)"
         id="path25" />
      <path
         d="M 39.27,161.379 H 426.52"
         style="fill:none;stroke:#ebebeb;stroke-width:0.53;stroke-linecap:butt;stroke-linejoin:round;stroke-miterlimit:10;stroke-dasharray:none;stroke-opacity:1"
         transform="scale(1.3333333)"
         clip-path="url(#clipPath3)"
         id="path26" />
      <path
         d="M 39.27,103.52 H 426.52"
         style="fill:none;stroke:#ebebeb;stroke-width:0.53;stroke-linecap:butt;stroke-linejoin:round;stroke-miterlimit:10;stroke-dasharray:none;stroke-opacity:1"
         transform="scale(1.3333333)"
         clip-path="url(#clipPath4)"
         id="path27" />
      <path
         d="M 102.34,317.621 V 63.012"
         style="fill:none;stroke:#ebebeb;stroke-width:0.53;stroke-linecap:butt;stroke-linejoin:round;stroke-miterlimit:10;stroke-dasharray:none;stroke-opacity:1"
         transform="scale(1.3333333)"
         clip-path="url(#clipPath5)"
         id="path28" />
      <path
         d="M 193.281,317.621 V 63.012"
         style="fill:none;stroke:#ebebeb;stroke-width:0.53;stroke-linecap:butt;stroke-linejoin:round;stroke-miterlimit:10;stroke-dasharray:none;stroke-opacity:1"
         transform="scale(1.3333333)"
         clip-path="url(#clipPath6)"
         id="path29" />
      <path
         d="M 284.219,317.621 V 63.012"
         style="fill:none;stroke:#ebebeb;stroke-width:0.53;stroke-linecap:butt;stroke-linejoin:round;stroke-miterlimit:10;stroke-dasharray:none;stroke-opacity:1"
         transform="scale(1.3333333)"
         clip-path="url(#clipPath7)"
         id="path30" />
      <path
         d="M 375.172,317.621 V 63.012"
         style="fill:none;stroke:#ebebeb;stroke-width:0.53;stroke-linecap:butt;stroke-linejoin:round;stroke-miterlimit:10;stroke-dasharray:none;stroke-opacity:1"
         transform="scale(1.3333333)"
         clip-path="url(#clipPath8)"
         id="path31" />
      <path
         d="M 39.27,306.051 H 426.52"
         style="fill:none;stroke:#ebebeb;stroke-width:1.07;stroke-linecap:butt;stroke-linejoin:round;stroke-miterlimit:10;stroke-dasharray:none;stroke-opacity:1"
         transform="scale(1.3333333)"
         clip-path="url(#clipPath9)"
         id="path32" />
      <path
         d="M 39.27,248.18 H 426.52"
         style="fill:none;stroke:#ebebeb;stroke-width:1.07;stroke-linecap:butt;stroke-linejoin:round;stroke-miterlimit:10;stroke-dasharray:none;stroke-opacity:1"
         transform="scale(1.3333333)"
         clip-path="url(#clipPath10)"
         id="path33" />
      <path
         d="M 39.27,190.32 H 426.52"
         style="fill:none;stroke:#ebebeb;stroke-width:1.07;stroke-linecap:butt;stroke-linejoin:round;stroke-miterlimit:10;stroke-dasharray:none;stroke-opacity:1"
         transform="scale(1.3333333)"
         clip-path="url(#clipPath11)"
         id="path34" />
      <path
         d="M 39.27,132.449 H 426.52"
         style="fill:none;stroke:#ebebeb;stroke-width:1.07;stroke-linecap:butt;stroke-linejoin:round;stroke-miterlimit:10;stroke-dasharray:none;stroke-opacity:1"
         transform="scale(1.3333333)"
         clip-path="url(#clipPath12)"
         id="path35" />
      <path
         d="M 39.27,74.578 H 426.52"
         style="fill:none;stroke:#ebebeb;stroke-width:1.07;stroke-linecap:butt;stroke-linejoin:round;stroke-miterlimit:10;stroke-dasharray:none;stroke-opacity:1"
         transform="scale(1.3333333)"
         clip-path="url(#clipPath13)"
         id="path36" />
      <path
         d="M 56.871,317.621 V 63.012"
         style="fill:none;stroke:#ebebeb;stroke-width:1.07;stroke-linecap:butt;stroke-linejoin:round;stroke-miterlimit:10;stroke-dasharray:none;stroke-opacity:1"
         transform="scale(1.3333333)"
         clip-path="url(#clipPath14)"
         id="path37" />
      <path
         d="M 147.809,317.621 V 63.012"
         style="fill:none;stroke:#ebebeb;stroke-width:1.07;stroke-linecap:butt;stroke-linejoin:round;stroke-miterlimit:10;stroke-dasharray:none;stroke-opacity:1"
         transform="scale(1.3333333)"
         clip-path="url(#clipPath15)"
         id="path38" />
      <path
         d="M 238.75,317.621 V 63.012"
         style="fill:none;stroke:#ebebeb;stroke-width:1.07;stroke-linecap:butt;stroke-linejoin:round;stroke-miterlimit:10;stroke-dasharray:none;stroke-opacity:1"
         transform="scale(1.3333333)"
         clip-path="url(#clipPath16)"
         id="path39" />
      <path
         d="M 329.699,317.621 V 63.012"
         style="fill:none;stroke:#ebebeb;stroke-width:1.07;stroke-linecap:butt;stroke-linejoin:round;stroke-miterlimit:10;stroke-dasharray:none;stroke-opacity:1"
         transform="scale(1.3333333)"
         clip-path="url(#clipPath17)"
         id="path40" />
      <path
         d="M 420.641,317.621 V 63.012"
         style="fill:none;stroke:#ebebeb;stroke-width:1.07;stroke-linecap:butt;stroke-linejoin:round;stroke-miterlimit:10;stroke-dasharray:none;stroke-opacity:1"
         transform="scale(1.3333333)"
         clip-path="url(#clipPath18)"
         id="path41" />
      <path
         d="m 56.871,306.051 h 2.367 l 0.512,-231.473 0.039,17.891 2.852,23.812 4.668,-21.961 1.16,-0.519 0.64,11.82 h 9.43 l 0.012,0.328 h 0.109 l 0.012,0.321 h 0.008 l 0.269,7.64 6.192,22.281 0.859,-0.66 0.34,5.547 h 2.738 l 2.113,26.602 2.868,-0.129 h 6.41 l 1.293,-1.063 0.027,0.34 0.039,-0.039 0.711,5.883 1.211,3.09 0.621,1.508 0.66,3.41 0.059,-0.071 h 34.648 l 1.172,13.129 0.27,-0.508 0.621,4.649 0.097,-0.039 0.172,-0.051 2.399,-1.629 0.133,0.879 0.089,-0.019 2.09,-0.508 0.938,-0.211 0.179,-0.039 0.243,2.238 h 3.718 l 0.243,-0.07 3.828,-0.95 0.871,-0.179 h 0.41 l 0.578,-0.071 2.531,-0.378 1.16,-0.161 1.829,-0.019 h 6.929 l 0.293,-0.051 3.16,-0.461 2.528,-0.019 0.222,-0.032 h 11.36 l 0.828,-0.109 6.32,-3.398 0.242,-0.211 0.348,-0.289 0.031,-0.024 0.032,-0.019 0.007,-0.008 0.063,-0.051 0.008,-0.012 0.148,-0.129 0.133,-0.097 2.367,-1.672 0.434,-0.168 0.008,0.047 0.031,-0.02 0.078,0.371 h 15.762 l 0.168,-0.129 0.91,-0.48 2.383,-1.473 5.347,-3.027 7.352,-3.441 2.301,-0.731 0.628,-0.187 0.051,-0.024 h 15.68 l 10.828,12.813 0.859,-0.012 0.141,0.473 h 12.531 l 0.36,-0.024 8.789,-3.808 0.851,-0.071 0.328,-0.14 h 0.5 l 0.313,-0.137 h 0.129 l 0.129,-0.051 h 21.679 l 7.622,3.551 0.808,-0.012 0.363,-0.012 h 5.629 l 0.782,-0.019 0.789,-0.027 0.418,-0.012 h 0.07 l 0.082,-0.012 h 0.051 l 1.148,-0.027 3.961,-0.102 6.598,-1.328 5.761,-1.84 1.661,-0.453 4.961,-1.539 0.738,-0.418 0.18,0.301 0.019,-0.012 0.789,1.27 h 59.594"
         style="fill:none;stroke:#e6e6e6;stroke-width:2.13;stroke-linecap:butt;stroke-linejoin:round;stroke-miterlimit:10;stroke-dasharray:none;stroke-opacity:1"
         transform="scale(1.3333333)"
         clip-path="url(#clipPath19)"
         id="path42" />
      <path
         d="m 56.871,306.051 h 5.289 l 3.512,-231.473 2.699,38.582 h 1.649 l 1.48,38.578 h 0.449 l 0.121,6.242 1.25,37.551 1.192,-0.211 2.238,37.27 0.441,5.609 0.739,9.77 0.101,-0.629 1.5,24.512 0.75,1.039 H 91.5 l 4.809,-29.911 1.492,-4.851 0.918,-2.91 h 0.101 l 0.008,-0.09 h 2.402 l 1.36,-9.801 1.039,-8.668 0.09,0.668 h 0.261 l 0.192,0.902 1.476,-11.289 h 12.082 l 0.489,3.52 6.152,-6.191 0.629,-0.692 1.051,-2.34 0.008,0.082 h 1.203 l 0.008,0.071 5.902,4.05 0.797,-0.8 0.261,1.789 h 3.981 l 1.32,8.332 h 0.629 l 1.02,4.59 3.011,6.097 h 3.637 l 0.223,-0.199 h 0.148 l 0.301,-0.281 h 0.02 l 0.671,-0.59 0.028,0.223 0.609,-0.524 3.313,18.363 h 14.039 l 0.57,0.399 h 4.191 l 1.071,-0.34 0.269,-0.078 0.938,-0.211 5.652,-8.352 0.039,0.129 h 8 l 0.27,-0.019 h 4.109 l 2.191,-0.77 0.051,0.172 2.231,-3.031 2.597,-2.629 3.102,-3.652 0.59,-0.379 0.719,-0.571 h 7.949 l 0.269,-0.007 1.461,-0.954 2.031,-1.976 2.54,-2.613 h 0.781 l 0.429,-0.438 h 0.2 l 0.172,-0.18 h 0.097 l 0.211,-0.222 0.02,-0.02 0.332,1.082 h 0.367 l 0.402,1.27 1.188,-1.199 h 14.109 l 1.473,4.398 0.41,-0.43 0.277,0.071 2.153,1.699 0.468,0.558 0.5,0.961 h 9.422 l 1.821,-1.871 h 0.039 l 1.23,-1.207 h 33.91 l 0.848,1.649 4.801,9.14 0.75,-0.09 h 1.699 l 0.859,-0.46 2.352,5.929 2.672,0.531 2.269,-0.968 1.168,-0.582 h 8.922 l 2.598,0.949 2.98,-0.27 5.063,-0.468 h 21.258"
         style="fill:none;stroke:#fed766;stroke-width:2.13;stroke-linecap:butt;stroke-linejoin:round;stroke-miterlimit:10;stroke-dasharray:none;stroke-opacity:1"
         transform="scale(1.3333333)"
         clip-path="url(#clipPath20)"
         id="path43" />
      <path
         d="m 56.871,306.051 0.188,-231.473 0.582,33.07 h 6.23 l 0.27,2.68 1.179,30.391 3.84,19.332 1.809,-8.93 0.14,3.891 0.25,-3.114 0.012,0.313 0.149,-1.723 0.39,10.114 0.238,-2.891 0.032,0.629 0.211,-2.399 0.41,9.297 1.39,-11.199 0.297,-1.609 0.274,4.582 0.437,4.008 0.922,8.57 h 3.07 l 0.469,7.332 1.328,14.719 1.953,-0.422 0.989,-5.739 0.011,0.149 h 3.418 l 5.161,-0.5 h 14.101 l 2.82,19.121 3.75,16.129 2.231,-1.188 1.148,-1.711 h 6.86 l 0.101,-0.289 0.731,0.68 1.879,-1.98 2.847,-3.621 0.024,-0.032 0.019,-0.008 0.09,-0.109 h 11.52 l 0.058,0.399 0.102,0.691 2.34,13.269 1.57,6.469 0.809,3.563 0.359,0.66 0.449,-0.281 0.102,0.589 0.609,-0.289 1.992,-1.179 0.77,4.547 h 2.551 l 1.718,9.421 0.11,-0.109 6.879,10.008 1.601,-0.43 0.641,-0.64 h 8.039 l 0.121,-0.118 h 0.148 l 0.012,-0.019 0.008,-0.012 0.109,0.449 h 4.032 l 0.23,-0.23 h 5.18 l 0.281,0.902 6.559,-7.859 h 9.64 l 1.031,-1.051 1.539,-1.332 1.79,-1.961 1.21,-1.609 h 0.129 l 0.071,-0.11 h 1.34 l 5.851,-0.859 2.848,-2.352 0.32,-0.238 h 18.93 l 1.961,-1.64 0.808,-0.481 3.742,-2.711 1.801,-0.258 h 3.989 l 0.07,0.18 h 1.648 l 0.442,-0.371 1.359,-1.117 0.449,-0.364 h 20.461"
         style="fill:none;stroke:#7fbb8f;stroke-width:2.13;stroke-linecap:butt;stroke-linejoin:round;stroke-miterlimit:10;stroke-dasharray:none;stroke-opacity:1"
         transform="scale(1.3333333)"
         clip-path="url(#clipPath21)"
         id="path44" />
      <path
         d="m 56.871,306.051 h 13 l 1.57,-231.473 0.028,12.313 0.051,27.828 4.531,-11.078 1.109,-3.161 0.52,-1.199 0.332,2.899 0.738,6.308 0.891,28.633 1.769,22.879 2.41,-3.078 1.532,3.578 0.789,-0.93 0.078,-0.121 h 27.383 l 1.308,22.051 5.11,3.238 h 7.261 l 0.078,-0.148 6.621,-15.461 0.098,-0.277 h 6.332 l 3.84,-0.832 1.262,5.82 h 1.789 l 4.371,25.082 2.629,-1.672 h 8.57 l 0.828,-0.172 9.879,27.844 0.883,-0.133 0.07,-0.027 h 0.008 l 0.121,-0.051 h 0.129 l 0.371,-0.152 h 1.418 l 5.543,15.769 h 3.231 l 3.628,-3.816 1.301,-0.801 0.02,0.039 0.008,-0.012 0.011,0.043 h 3.192 l 1.179,1.508 2.5,-1.027 7.188,-4.934 h 13.652 l 1.438,1.262 2.73,-1.82 0.082,0.242 0.168,-0.133 0.082,0.25 0.059,-0.051 1.18,-0.976 1.57,3.847 1.238,3.43 0.813,-0.481 3.031,-0.136 h 0.687 l 2.391,-1.793 h 2.82 l 0.008,0.031 6.434,15.41 1.359,2.192 0.68,1.468 0.219,-0.218 h 0.21 l 0.02,-0.024 h 0.09 l 0.859,-0.816 0.051,0.109 0.691,-0.641 h 5.957 l 0.243,-0.23 6.179,-5.738 1.828,-1.524 0.422,-0.148 1.121,-0.129 h 3.579 l 1.71,-1.609 4.282,-4.274 h 0.66 l 2.34,0.203 0.019,0.039 h 0.117 l 0.274,0.45 0.066,0.121 0.321,0.55 h 11.531"
         style="fill:none;stroke:#009fb7;stroke-width:2.13;stroke-linecap:butt;stroke-linejoin:round;stroke-miterlimit:10;stroke-dasharray:none;stroke-opacity:1"
         transform="scale(1.3333333)"
         clip-path="url(#clipPath22)"
         id="path45" />
      <path
         d="M 39.27,306.051 H 426.52"
         style="fill:none;stroke:#000000;stroke-width:1.07;stroke-linecap:butt;stroke-linejoin:round;stroke-miterlimit:10;stroke-dasharray:5.69, 5.69;stroke-dashoffset:0;stroke-opacity:1"
         transform="scale(1.3333333)"
         clip-path="url(#clipPath23)"
         id="path46" />
    </g>
    <g
       id="g82">
      <text
         xml:space="preserve"
         transform="matrix(1.3333333,0,0,1.3341997,25.253336,412.11999)"
         clip-path="url(#clipPath48)"
         id="text67"><tspan
           style="font-variant:normal;font-weight:normal;font-size:8.79429px;font-family:'TeX Gyre Pagella';writing-mode:lr-tb;fill:#4d4d4d;fill-opacity:1;fill-rule:nonzero;stroke:none"
           x="0"
           y="0"
           id="tspan63">0.00</tspan><tspan
           style="font-variant:normal;font-weight:normal;font-size:8.79429px;font-family:'TeX Gyre Pagella';writing-mode:lr-tb;fill:#4d4d4d;fill-opacity:1;fill-rule:nonzero;stroke:none"
           x="0"
           y="-57.83242"
           id="tspan64">0.25</tspan><tspan
           style="font-variant:normal;font-weight:normal;font-size:8.79429px;font-family:'TeX Gyre Pagella';writing-mode:lr-tb;fill:#4d4d4d;fill-opacity:1;fill-rule:nonzero;stroke:none"
           x="0"
           y="-115.65485"
           id="tspan65">0.50</tspan><tspan
           style="font-variant:normal;font-weight:normal;font-size:8.79429px;font-family:'TeX Gyre Pagella';writing-mode:lr-tb;fill:#4d4d4d;fill-opacity:1;fill-rule:nonzero;stroke:none"
           x="0"
           y="-173.48727"
           id="tspan66">0.75</tspan><tspan
           style="font-variant:normal;font-weight:normal;font-size:8.79429px;font-family:'TeX Gyre Pagella';writing-mode:lr-tb;fill:#4d4d4d;fill-opacity:1;fill-rule:nonzero;stroke:none"
           x="0"
           y="-231.31969"
           id="tspan67">1.00</tspan></text>
      <text
         xml:space="preserve"
         transform="matrix(0.94280904,-0.94280904,0.94280904,0.94280904,77.41164,439.96169)"
         clip-path="url(#clipPath49)"
         id="text68"><tspan
           style="font-variant:normal;font-weight:normal;font-size:8.8px;font-family:'TeX Gyre Pagella';writing-mode:lr-tb;fill:#4d4d4d;fill-opacity:1;fill-rule:nonzero;stroke:none"
           x="0"
           y="0"
           id="tspan68">0</tspan></text>
      <text
         xml:space="preserve"
         transform="matrix(0.94280904,-0.94280904,0.94280919,0.94280919,190.36825,448.25841)"
         clip-path="url(#clipPath50)"
         id="text71"><tspan
           style="font-variant:normal;font-weight:normal;font-size:8.8px;font-family:'TeX Gyre Pagella';writing-mode:lr-tb;fill:#4d4d4d;fill-opacity:1;fill-rule:nonzero;stroke:none"
           x="0"
           y="0"
           id="tspan69">250</tspan><tspan
           style="font-variant:normal;font-weight:normal;font-size:8.8px;font-family:'TeX Gyre Pagella';writing-mode:lr-tb;fill:#4d4d4d;fill-opacity:1;fill-rule:nonzero;stroke:none"
           x="64.311363"
           y="64.311356"
           id="tspan70">500</tspan><tspan
           style="font-variant:normal;font-weight:normal;font-size:8.8px;font-family:'TeX Gyre Pagella';writing-mode:lr-tb;fill:#4d4d4d;fill-opacity:1;fill-rule:nonzero;stroke:none"
           x="128.61565"
           y="128.61563"
           id="tspan71">750</tspan></text>
      <text
         xml:space="preserve"
         transform="matrix(0.94280904,-0.94280904,0.94280904,0.94280904,549.99323,452.40677)"
         clip-path="url(#clipPath51)"
         id="text72"><tspan
           style="font-variant:normal;font-weight:normal;font-size:8.8px;font-family:'TeX Gyre Pagella';writing-mode:lr-tb;fill:#4d4d4d;fill-opacity:1;fill-rule:nonzero;stroke:none"
           x="0"
           y="0"
           id="tspan72">1000</tspan></text>
      <text
         xml:space="preserve"
         transform="matrix(1.3333333,0,0,1.3242955,282.29333,468.54667)"
         clip-path="url(#clipPath52)"
         id="text73"><tspan
           style="font-variant:normal;font-weight:normal;font-size:11.0751px;font-family:'TeX Gyre Pagella';writing-mode:lr-tb;fill:#000000;fill-opacity:1;fill-rule:nonzero;stroke:none"
           x="0"
           dx="0 -0.27687678"
           y="0"
           id="tspan73">Time (s)</tspan></text>
      <text
         xml:space="preserve"
         transform="matrix(0,-1.3333333,1.3228691,0,17.453333,304.89333)"
         clip-path="url(#clipPath53)"
         id="text74"><tspan
           style="font-variant:normal;font-weight:normal;font-size:11.087px;font-family:'TeX Gyre Pagella';writing-mode:lr-tb;fill:#000000;fill-opacity:1;fill-rule:nonzero;stroke:none"
           x="0"
           y="0"
           id="tspan74">Gini Coeﬃcient</tspan></text>
      <text
         xml:space="preserve"
         transform="matrix(1.3333333,0,0,1.3334601,131.04,55.653336)"
         clip-path="url(#clipPath54)"
         id="text75"><tspan
           style="font-variant:normal;font-weight:normal;font-size:10.999px;font-family:'TeX Gyre Pagella';writing-mode:lr-tb;fill:#000000;fill-opacity:1;fill-rule:nonzero;stroke:none"
           x="0"
           y="0"
           id="tspan75">Discussion</tspan></text>
      <path
         d="m 158.219,37.93 h 13.832"
         style="fill:none;stroke:#e6e6e6;stroke-width:2.13;stroke-linecap:butt;stroke-linejoin:round;stroke-miterlimit:10;stroke-dasharray:none;stroke-opacity:1"
         transform="scale(1.3333333)"
         clip-path="url(#clipPath55)"
         id="path75" />
      <path
         d="m 208.809,37.93 h 13.832"
         style="fill:none;stroke:#fed766;stroke-width:2.13;stroke-linecap:butt;stroke-linejoin:round;stroke-miterlimit:10;stroke-dasharray:none;stroke-opacity:1"
         transform="scale(1.3333333)"
         clip-path="url(#clipPath56)"
         id="path76" />
      <path
         d="M 263.699,37.93 H 277.52"
         style="fill:none;stroke:#7fbb8f;stroke-width:2.13;stroke-linecap:butt;stroke-linejoin:round;stroke-miterlimit:10;stroke-dasharray:none;stroke-opacity:1"
         transform="scale(1.3333333)"
         clip-path="url(#clipPath57)"
         id="path77" />
      <path
         d="m 324.93,37.93 h 13.82"
         style="fill:none;stroke:#009fb7;stroke-width:2.13;stroke-linecap:butt;stroke-linejoin:round;stroke-miterlimit:10;stroke-dasharray:none;stroke-opacity:1"
         transform="scale(1.3333333)"
         clip-path="url(#clipPath58)"
         id="path78" />
      <text
         xml:space="preserve"
         transform="matrix(1.3333333,0,0,1.3334532,239.01333,54.626668)"
         clip-path="url(#clipPath59)"
         id="text78"><tspan
           style="font-variant:normal;font-weight:normal;font-size:8.79921px;font-family:'TeX Gyre Pagella';writing-mode:lr-tb;fill:#000000;fill-opacity:1;fill-rule:nonzero;stroke:none"
           x="0"
           y="0"
           id="tspan78">Blank</tspan></text>
      <text
         xml:space="preserve"
         transform="matrix(1.3333333,0,0,1.3335941,306.45333,54.626668)"
         clip-path="url(#clipPath60)"
         id="text79"><tspan
           style="font-variant:normal;font-weight:normal;font-size:8.79828px;font-family:'TeX Gyre Pagella';writing-mode:lr-tb;fill:#000000;fill-opacity:1;fill-rule:nonzero;stroke:none"
           x="0"
           y="0"
           id="tspan79">Circles</tspan></text>
      <text
         xml:space="preserve"
         transform="matrix(1.3333333,0,0,1.3195115,379.64001,54.626668)"
         clip-path="url(#clipPath61)"
         id="text80"><tspan
           style="font-variant:normal;font-weight:normal;font-size:8.89218px;font-family:'TeX Gyre Pagella';writing-mode:lr-tb;fill:#000000;fill-opacity:1;fill-rule:nonzero;stroke:none"
           x="0"
           dx="0 -0.35568723"
           y="0"
           id="tspan80">Particles</tspan></text>
      <text
         xml:space="preserve"
         transform="matrix(1.3333333,0,0,1.3339526,461.27999,54.626668)"
         clip-path="url(#clipPath62)"
         id="text81"><tspan
           style="font-variant:normal;font-weight:normal;font-size:8.79592px;font-family:'TeX Gyre Pagella';writing-mode:lr-tb;fill:#000000;fill-opacity:1;fill-rule:nonzero;stroke:none"
           x="0"
           y="0"
           id="tspan81">Slices</tspan></text>
      <text
         xml:space="preserve"
         transform="matrix(1.3333333,0,0,1.3275925,79.086668,19.466667)"
         clip-path="url(#clipPath63)"
         id="text82"><tspan
           style="font-variant:normal;font-weight:normal;font-size:13.2571px;font-family:'TeX Gyre Pagella';writing-mode:lr-tb;fill:#000000;fill-opacity:1;fill-rule:nonzero;stroke:none"
           x="0"
           dx="0 0 0 0 0 0 0 0 0 0 0 0 0 0 0 0 0 0 0 0 0 0 0 -0.33142698 0 0 0 0 0 0 0 0 0 0 0 0 0 0 0 0 0 0 -0.19885619 0 -0.53028315"
           y="0"
           id="tspan82">Gini Coeﬃcient across Visualisations [Therapy Simulation]</tspan></text>
    </g>
  </g>
</svg>
