<?xml version="1.0" encoding="UTF-8" standalone="no"?>
<!-- Created with Inkscape (http://www.inkscape.org/) -->

<svg
   width="37.350101mm"
   height="5.6397195mm"
   viewBox="0 0 37.350101 5.6397195"
   version="1.1"
   id="svg1"
   sodipodi:docname="mirrorlevel.svg"
   inkscape:export-filename="mirrorlevel.png"
   inkscape:export-xdpi="96"
   inkscape:export-ydpi="96"
   xmlns:inkscape="http://www.inkscape.org/namespaces/inkscape"
   xmlns:sodipodi="http://sodipodi.sourceforge.net/DTD/sodipodi-0.dtd"
   xmlns="http://www.w3.org/2000/svg"
   xmlns:svg="http://www.w3.org/2000/svg">
  <sodipodi:namedview
     id="namedview1"
     pagecolor="#505050"
     bordercolor="#eeeeee"
     borderopacity="1"
     inkscape:showpageshadow="0"
     inkscape:pageopacity="0"
     inkscape:pagecheckerboard="0"
     inkscape:deskcolor="#505050"
     inkscape:document-units="mm">
    <inkscape:page
       x="0"
       y="0"
       width="37.350101"
       height="5.6397195"
       id="page2"
       margin="0"
       bleed="0" />
  </sodipodi:namedview>
  <defs
     id="defs1" />
  <g
     id="layer1"
     transform="translate(-33.798528,-60.74028)">
    <path
       d="m 55.43951,61.125985 v 5.131469 h 1.225248 v -5.131469 z"
       style="font-weight:600;font-size:7.05556px;line-height:10.9114px;font-family:'Inter V';-inkscape-font-specification:'Inter V Semi-Bold';fill:#ffffff;fill-opacity:1;fill-rule:evenodd;stroke:none;stroke-width:0.2;paint-order:markers fill stroke"
       id="path12" />
    <path
       d="m 69.923381,61.125985 v 5.131469 h 1.225248 v -5.131469 z"
       style="font-weight:600;font-size:7.05556px;line-height:10.9114px;font-family:'Inter V';-inkscape-font-specification:'Inter V Semi-Bold';fill:#ffffff;fill-opacity:1;fill-rule:evenodd;stroke:none;stroke-width:0.2;paint-order:markers fill stroke"
       id="path11" />
    <path
       d="m 61.283081,62.409111 1.318266,3.848343 h 1.403015 l 1.320333,-3.848343 h -1.290361 l -0.711584,2.650484 h -0.04031 l -0.709,-2.650484 z"
       style="font-weight:600;font-size:7.05556px;line-height:10.9114px;font-family:'Inter V';-inkscape-font-specification:'Inter V Semi-Bold';fill:#ffffff;fill-opacity:1;fill-rule:evenodd;stroke:none;stroke-width:0.2;paint-order:markers fill stroke"
       id="path10" />
    <path
       id="path9"
       style="font-weight:600;font-size:7.05556px;line-height:10.9114px;font-family:'Inter V';-inkscape-font-specification:'Inter V Semi-Bold';fill:#ffffff;fill-opacity:1;fill-rule:evenodd;stroke:none;stroke-width:0.2;paint-order:markers fill stroke"
       d="m 59.202588,62.358984 c -0.387521,0 -0.724128,0.08308 -1.009758,0.250114 -0.28563,0.165365 -0.507029,0.397606 -0.664042,0.696599 -0.157013,0.297322 -0.235128,0.64477 -0.235128,1.042313 0,0.409236 0.07772,0.762562 0.233061,1.059884 0.157013,0.295652 0.380636,0.523842 0.671277,0.684196 0.292311,0.158683 0.639759,0.237711 1.042314,0.237711 0.33574,0 0.631204,-0.05055 0.886767,-0.152445 0.255564,-0.103562 0.462071,-0.248156 0.619084,-0.433565 0.158683,-0.18708 0.261222,-0.406652 0.307991,-0.658875 l -1.124995,-0.03256 c -0.03174,0.08519 -0.07915,0.157028 -0.142627,0.215491 -0.06347,0.05846 -0.139365,0.102742 -0.227893,0.132808 -0.08853,0.03007 -0.187017,0.04496 -0.29559,0.04496 -0.157013,0 -0.292593,-0.03252 -0.406176,-0.09767 -0.113584,-0.06514 -0.201231,-0.156444 -0.263033,-0.273368 -0.0618,-0.118595 -0.0925,-0.256399 -0.0925,-0.413412 v -0.03256 h 2.565218 v -0.305407 c 0,-0.315697 -0.04559,-0.595355 -0.13746,-0.839226 -0.09187,-0.245541 -0.220658,-0.452048 -0.386022,-0.619083 -0.165365,-0.167035 -0.361427,-0.293084 -0.588595,-0.378272 -0.227168,-0.08519 -0.477955,-0.127641 -0.751892,-0.127641 z m 0.02532,0.884184 c 0.135299,0 0.254556,0.02939 0.358118,0.08785 0.105232,0.05679 0.187914,0.13582 0.248047,0.237712 0.06013,0.101891 0.09083,0.218011 0.0925,0.348299 h -1.423686 c 0.0062,-0.123633 0.03855,-0.235178 0.0987,-0.333313 0.06347,-0.105232 0.149293,-0.187914 0.257865,-0.248047 0.108573,-0.0618 0.231485,-0.0925 0.368453,-0.0925 z" />
    <path
       id="path7"
       style="font-weight:600;font-size:7.05556px;line-height:10.9114px;font-family:'Inter V';-inkscape-font-specification:'Inter V Semi-Bold';fill:#ffffff;fill-opacity:1;fill-rule:evenodd;stroke:none;stroke-width:0.2;paint-order:markers fill stroke"
       d="m 67.430509,62.358984 c -0.387521,0 -0.724127,0.08308 -1.009757,0.250114 -0.28563,0.165365 -0.507029,0.397606 -0.664042,0.696599 -0.157013,0.297322 -0.235645,0.64477 -0.235645,1.042313 0,0.409236 0.07772,0.762562 0.233061,1.059884 0.157013,0.295652 0.380636,0.523842 0.671277,0.684196 0.292311,0.158683 0.639759,0.237711 1.042313,0.237711 0.335741,0 0.631721,-0.05055 0.887285,-0.152445 0.255563,-0.103562 0.461554,-0.248156 0.618567,-0.433565 0.158683,-0.18708 0.261738,-0.406652 0.308508,-0.658875 L 68.15708,65.05236 c -0.03174,0.08519 -0.07967,0.157028 -0.143144,0.215491 -0.06347,0.05846 -0.139364,0.102742 -0.227893,0.132808 -0.08853,0.03007 -0.187016,0.04496 -0.295589,0.04496 -0.157013,0 -0.292076,-0.03252 -0.40566,-0.09767 -0.113584,-0.06514 -0.20123,-0.156444 -0.263033,-0.273368 -0.0618,-0.118595 -0.09302,-0.256399 -0.09302,-0.413412 v -0.03256 h 2.565735 v -0.305407 c 0,-0.315697 -0.04611,-0.595355 -0.137976,-0.839226 -0.09187,-0.245541 -0.220141,-0.452048 -0.385506,-0.619083 -0.165365,-0.167035 -0.361944,-0.293084 -0.589111,-0.378272 -0.227168,-0.08519 -0.477438,-0.127641 -0.751376,-0.127641 z m 0.02481,0.884184 c 0.135299,0 0.255073,0.02939 0.358635,0.08785 0.105232,0.05679 0.187914,0.13582 0.248046,0.237712 0.06013,0.101891 0.09083,0.218011 0.0925,0.348299 h -1.424202 c 0.0062,-0.123637 0.03855,-0.235176 0.0987,-0.333313 0.06347,-0.105232 0.149292,-0.187914 0.257865,-0.248047 0.108573,-0.0618 0.231484,-0.0925 0.368453,-0.0925 z" />
    <text
       xml:space="preserve"
       style="font-style:normal;font-variant:normal;font-weight:normal;font-stretch:normal;font-size:7.05556px;line-height:10.9114px;font-family:'Inter V';-inkscape-font-specification:'Inter V, @wght=800';font-variant-ligatures:normal;font-variant-caps:normal;font-variant-numeric:normal;font-variant-east-asian:normal;font-variation-settings:'wght' 800;text-align:start;writing-mode:lr-tb;direction:ltr;text-anchor:start;fill:none;fill-opacity:1;fill-rule:nonzero;stroke:#ffffff;stroke-width:0.1;stroke-linecap:butt;stroke-dasharray:none;stroke-opacity:1;paint-order:stroke markers fill"
       x="-55.095387"
       y="66.257339"
       id="text5"
       transform="scale(-1,1)"><tspan
         id="tspan5"
         style="fill:none;fill-opacity:1;stroke:#ffffff;stroke-width:0.1;stroke-dasharray:none;stroke-opacity:1"
         x="-55.095387"
         y="66.257339">rorrim</tspan></text>
  </g>
</svg>
