<svg version="1.1" viewBox="0.0 0.0 453.54330708661416 453.54330708661416" fill="none" stroke="none" stroke-linecap="square" stroke-miterlimit="10" xmlns:xlink="http://www.w3.org/1999/xlink" xmlns="http://www.w3.org/2000/svg"><clipPath id="p.0"><path d="m0 0l453.5433 0l0 453.5433l-453.5433 0l0 -453.5433z" clip-rule="nonzero"/></clipPath><g clip-path="url(#p.0)"><path fill="#ffffff" d="m0 0l453.5433 0l0 453.5433l-453.5433 0z" fill-rule="evenodd"/><path fill="#000000" fill-opacity="0.0" d="m219.63046 81.13138l0 403.3701" fill-rule="evenodd"/><path stroke="#3d85c6" stroke-width="2.0" stroke-linejoin="round" stroke-linecap="butt" d="m219.63048 93.13138l0 379.37006" fill-rule="evenodd"/><path fill="#3d85c6" stroke="#3d85c6" stroke-width="2.0" stroke-linecap="butt" d="m222.93394 93.13138l-3.3034668 -9.076195l-3.3034668 9.076195z" fill-rule="evenodd"/><path fill="#3d85c6" stroke="#3d85c6" stroke-width="2.0" stroke-linecap="butt" d="m216.32701 472.50143l3.3034668 9.076202l3.3034668 -9.076202z" fill-rule="evenodd"/><path fill="#eeeeee" d="m14.400132 163.04985l0 0c0 -15.159561 12.289254 -27.448822 27.448818 -27.448822l0 0c7.2798805 0 14.261597 2.891922 19.409248 8.039581c5.147648 5.147644 8.03957 12.129364 8.03957 19.40924l0 0c0 15.159561 -12.289253 27.448822 -27.448818 27.448822l0 0c-15.159563 0 -27.448818 -12.289261 -27.448818 -27.448822z" fill-rule="evenodd"/><path stroke="#595959" stroke-width="2.0" stroke-linejoin="round" stroke-linecap="butt" d="m14.400132 163.04985l0 0c0 -15.159561 12.289254 -27.448822 27.448818 -27.448822l0 0c7.2798805 0 14.261597 2.891922 19.409248 8.039581c5.147648 5.147644 8.03957 12.129364 8.03957 19.40924l0 0c0 15.159561 -12.289253 27.448822 -27.448818 27.448822l0 0c-15.159563 0 -27.448818 -12.289261 -27.448818 -27.448822z" fill-rule="evenodd"/><path fill="#ffffff" d="m3.538896 163.01346l76.59843 0l0 28.7874l-76.59843 0z" fill-rule="evenodd"/><path stroke="#ffffff" stroke-width="1.0" stroke-linejoin="round" stroke-linecap="butt" d="m3.538896 163.01346l76.59843 0l0 28.7874l-76.59843 0z" fill-rule="evenodd"/><path fill="#eeeeee" d="m423.3651 386.14606l0 0c0 15.159546 -12.289246 27.448822 -27.448822 27.448822l0 0c-7.2798767 0 -14.261597 -2.8919373 -19.40924 -8.039581c-5.147644 -5.147644 -8.039581 -12.129364 -8.039581 -19.40924l0 0c0 -15.159576 12.289246 -27.448822 27.448822 -27.448822l0 0c15.159576 0 27.448822 12.289246 27.448822 27.448822z" fill-rule="evenodd"/><path stroke="#595959" stroke-width="2.0" stroke-linejoin="round" stroke-linecap="butt" d="m423.3651 386.14606l0 0c0 15.159546 -12.289246 27.448822 -27.448822 27.448822l0 0c-7.2798767 0 -14.261597 -2.8919373 -19.40924 -8.039581c-5.147644 -5.147644 -8.039581 -12.129364 -8.039581 -19.40924l0 0c0 -15.159576 12.289246 -27.448822 27.448822 -27.448822l0 0c15.159576 0 27.448822 12.289246 27.448822 27.448822z" fill-rule="evenodd"/><path fill="#ffffff" d="m434.22635 386.18243l-76.59842 0l0 -28.787384l76.59842 0z" fill-rule="evenodd"/><path stroke="#ffffff" stroke-width="1.0" stroke-linejoin="round" stroke-linecap="butt" d="m434.22635 386.18243l-76.59842 0l0 -28.787384l76.59842 0z" fill-rule="evenodd"/><path fill="#000000" fill-opacity="0.0" d="m45.502842 383.34238l348.56693 -201.22833" fill-rule="evenodd"/><path stroke="#6aa84f" stroke-width="2.0" stroke-linejoin="round" stroke-linecap="butt" d="m55.895363 377.34277l327.7819 -189.22911" fill-rule="evenodd"/><path fill="#6aa84f" stroke="#6aa84f" stroke-width="2.0" stroke-linecap="butt" d="m54.243732 374.48184l-6.2087517 7.3987427l9.512009 -1.6768799z" fill-rule="evenodd"/><path fill="#6aa84f" stroke="#6aa84f" stroke-width="2.0" stroke-linecap="butt" d="m385.32886 190.9746l6.2087708 -7.398758l-9.512024 1.6768799z" fill-rule="evenodd"/><path fill="#000000" fill-opacity="0.0" d="m44.986122 181.87964l349.22836 201.6063" fill-rule="evenodd"/><path stroke="#cc4125" stroke-width="2.0" stroke-linejoin="round" stroke-linecap="butt" d="m55.378696 187.87917l328.44324 189.60722" fill-rule="evenodd"/><path fill="#cc4125" stroke="#cc4125" stroke-width="2.0" stroke-linecap="butt" d="m57.0303 185.01822l-9.512024 -1.6767883l6.2088127 7.398697z" fill-rule="evenodd"/><path fill="#cc4125" stroke="#cc4125" stroke-width="2.0" stroke-linecap="butt" d="m382.17032 380.34735l9.512024 1.6767883l-6.208832 -7.398712z" fill-rule="evenodd"/><path fill="#ffffff" d="m187.54997 305.3335l64.50394 0l0 35.24408l-64.50394 0z" fill-rule="evenodd"/><path stroke="#ffffff" stroke-width="1.0" stroke-linejoin="round" stroke-linecap="butt" d="m187.54997 305.3335l64.50394 0l0 35.24408l-64.50394 0z" fill-rule="evenodd"/><path fill="#eeeeee" d="m195.17473 258.06128l49.259842 0l0 49.259827l-49.259842 0z" fill-rule="evenodd"/><path stroke="#595959" stroke-width="2.0" stroke-linejoin="round" stroke-linecap="butt" d="m195.17473 258.06128l49.259842 0l0 49.259827l-49.259842 0z" fill-rule="evenodd"/><path fill="#000000" fill-opacity="0.0" d="m155.53702 302.13962l128.18896 0l0 35.55905l-128.18896 0z" fill-rule="evenodd"/><path fill="#000000" d="m187.54424 324.08023q-0.65625 0 -1.078125 -0.21875q-0.421875 -0.234375 -0.65625 -0.53125q-0.234375 -0.296875 -0.375 -0.53125l-0.109375 0l0 1.140625l-1.390625 0l0 -9.703125l1.421875 0l0 3.609375l0.078125 0q0.140625 -0.21875 0.359375 -0.515625q0.234375 -0.3125 0.640625 -0.53125q0.421875 -0.21875 1.109375 -0.21875q0.875 0 1.546875 0.4375q0.6875 0.4375 1.078125 1.28125q0.40625 0.84375 0.40625 2.015625q0 1.171875 -0.390625 2.015625q-0.390625 0.84375 -1.078125 1.296875q-0.6875 0.453125 -1.5625 0.453125zm-0.328125 -1.21875q0.625 0 1.046875 -0.328125q0.4375 -0.34375 0.640625 -0.921875q0.21875 -0.578125 0.21875 -1.296875q0 -0.71875 -0.21875 -1.28125q-0.203125 -0.578125 -0.625 -0.90625q-0.421875 -0.34375 -1.0625 -0.34375q-0.609375 0 -1.03125 0.328125q-0.421875 0.3125 -0.640625 0.875q-0.203125 0.5625 -0.203125 1.328125q0 0.75 0.21875 1.328125q0.21875 0.578125 0.640625 0.90625q0.421875 0.3125 1.015625 0.3125zm7.119171 1.234375q-0.6875 0 -1.25 -0.25q-0.5625 -0.25 -0.890625 -0.75q-0.3125 -0.5 -0.3125 -1.21875q0 -0.609375 0.234375 -1.0q0.234375 -0.40625 0.640625 -0.640625q0.40625 -0.234375 0.90625 -0.34375q0.5 -0.125 1.015625 -0.1875q0.640625 -0.078125 1.046875 -0.125q0.40625 -0.046875 0.59375 -0.15625q0.1875 -0.125 0.1875 -0.375l0 -0.03125q0 -0.421875 -0.15625 -0.6875q-0.15625 -0.28125 -0.46875 -0.4375q-0.296875 -0.15625 -0.765625 -0.15625q-0.46875 0 -0.8125 0.15625q-0.34375 0.140625 -0.5625 0.375q-0.203125 0.21875 -0.3125 0.46875l-1.34375 -0.359375q0.25 -0.640625 0.703125 -1.03125q0.46875 -0.40625 1.0625 -0.578125q0.609375 -0.1875 1.234375 -0.1875q0.453125 0 0.9375 0.109375q0.5 0.09375 0.9375 0.375q0.4375 0.265625 0.703125 0.765625q0.28125 0.484375 0.28125 1.28125l0 4.828125l-1.390625 0l0 -1.0l-0.078125 0q-0.140625 0.28125 -0.421875 0.546875q-0.28125 0.265625 -0.703125 0.4375q-0.421875 0.171875 -1.015625 0.171875zm0.3125 -1.140625q0.59375 0 1.0 -0.21875q0.421875 -0.234375 0.640625 -0.609375q0.234375 -0.390625 0.234375 -0.8125l0 -0.921875q-0.078125 0.078125 -0.296875 0.140625q-0.21875 0.0625 -0.5 0.109375q-0.28125 0.046875 -0.546875 0.078125q-0.265625 0.03125 -0.421875 0.046875q-0.40625 0.046875 -0.75 0.171875q-0.328125 0.125 -0.53125 0.359375q-0.1875 0.21875 -0.1875 0.609375q0 0.34375 0.171875 0.578125q0.171875 0.234375 0.484375 0.359375q0.3125 0.109375 0.703125 0.109375zm7.8342896 1.140625q-0.796875 0 -1.40625 -0.234375q-0.609375 -0.234375 -1.015625 -0.671875q-0.390625 -0.453125 -0.515625 -1.09375l1.34375 -0.28125q0.15625 0.5625 0.5625 0.84375q0.40625 0.265625 1.03125 0.265625q0.703125 0 1.109375 -0.28125q0.40625 -0.296875 0.40625 -0.6875q0 -0.359375 -0.25 -0.578125q-0.25 -0.234375 -0.765625 -0.34375l-1.234375 -0.28125q-1.015625 -0.234375 -1.515625 -0.734375q-0.484375 -0.5 -0.484375 -1.28125q0 -0.640625 0.359375 -1.125q0.375 -0.5 1.0 -0.765625q0.640625 -0.265625 1.453125 -0.265625q0.796875 0 1.359375 0.234375q0.5625 0.21875 0.90625 0.625q0.34375 0.40625 0.5 0.953125l-1.28125 0.28125q-0.140625 -0.390625 -0.484375 -0.671875q-0.328125 -0.296875 -0.984375 -0.296875q-0.59375 0 -0.984375 0.265625q-0.390625 0.265625 -0.390625 0.671875q0 0.375 0.25 0.59375q0.265625 0.21875 0.875 0.359375l1.171875 0.265625q1.0 0.21875 1.484375 0.71875q0.5 0.484375 0.5 1.25q0 0.65625 -0.390625 1.171875q-0.375 0.515625 -1.046875 0.8125q-0.671875 0.28125 -1.5625 0.28125zm7.693817 0q-1.0625 0 -1.84375 -0.46875q-0.78125 -0.46875 -1.203125 -1.296875q-0.421875 -0.84375 -0.421875 -1.96875q0 -1.125 0.40625 -1.96875q0.421875 -0.859375 1.171875 -1.328125q0.765625 -0.484375 1.765625 -0.484375q0.625 0 1.203125 0.203125q0.59375 0.203125 1.046875 0.640625q0.46875 0.4375 0.734375 1.125q0.265625 0.6875 0.265625 1.6875l0 0.5l-5.796875 0l0 -1.0625l5.0625 0l-0.671875 0.34375q0 -0.671875 -0.203125 -1.171875q-0.203125 -0.515625 -0.609375 -0.796875q-0.40625 -0.296875 -1.03125 -0.296875q-0.59375 0 -1.03125 0.296875q-0.421875 0.296875 -0.65625 0.78125q-0.21875 0.46875 -0.21875 1.03125l0 0.734375q0 0.75 0.25 1.265625q0.265625 0.515625 0.71875 0.78125q0.46875 0.265625 1.078125 0.265625q0.40625 0 0.734375 -0.109375q0.328125 -0.125 0.5625 -0.34375q0.234375 -0.234375 0.359375 -0.578125l1.34375 0.3125q-0.171875 0.5625 -0.59375 1.0q-0.40625 0.421875 -1.03125 0.671875q-0.609375 0.234375 -1.390625 0.234375zm10.866653 0q-0.796875 0 -1.40625 -0.234375q-0.609375 -0.234375 -1.015625 -0.671875q-0.390625 -0.453125 -0.515625 -1.09375l1.34375 -0.28125q0.15625 0.5625 0.5625 0.84375q0.40625 0.265625 1.03125 0.265625q0.703125 0 1.109375 -0.28125q0.40625 -0.296875 0.40625 -0.6875q0 -0.359375 -0.25 -0.578125q-0.25 -0.234375 -0.765625 -0.34375l-1.234375 -0.28125q-1.015625 -0.234375 -1.515625 -0.734375q-0.484375 -0.5 -0.484375 -1.28125q0 -0.640625 0.359375 -1.125q0.375 -0.5 1.0 -0.765625q0.640625 -0.265625 1.453125 -0.265625q0.796875 0 1.359375 0.234375q0.5625 0.21875 0.90625 0.625q0.34375 0.40625 0.5 0.953125l-1.28125 0.28125q-0.140625 -0.390625 -0.484375 -0.671875q-0.328125 -0.296875 -0.984375 -0.296875q-0.59375 0 -0.984375 0.265625q-0.390625 0.265625 -0.390625 0.671875q0 0.375 0.25 0.59375q0.265625 0.21875 0.875 0.359375l1.171875 0.265625q1.0 0.21875 1.484375 0.71875q0.5 0.484375 0.5 1.25q0 0.65625 -0.390625 1.171875q-0.375 0.515625 -1.046875 0.8125q-0.671875 0.28125 -1.5625 0.28125zm5.990692 -4.46875l0 4.3125l-1.421875 0l0 -9.703125l1.40625 0l0 4.203125l-0.1875 0q0.328125 -0.96875 0.921875 -1.40625q0.609375 -0.453125 1.46875 -0.453125q0.75 0 1.296875 0.3125q0.5625 0.3125 0.859375 0.921875q0.3125 0.59375 0.3125 1.5l0 4.625l-1.421875 0l0 -4.4375q0 -0.796875 -0.421875 -1.234375q-0.40625 -0.453125 -1.109375 -0.453125q-0.484375 0 -0.875 0.21875q-0.375 0.21875 -0.609375 0.625q-0.21875 0.390625 -0.21875 0.96875zm8.627075 4.46875q-0.6875 0 -1.25 -0.25q-0.5625 -0.25 -0.890625 -0.75q-0.3125 -0.5 -0.3125 -1.21875q0 -0.609375 0.234375 -1.0q0.234375 -0.40625 0.640625 -0.640625q0.40625 -0.234375 0.90625 -0.34375q0.5 -0.125 1.015625 -0.1875q0.640625 -0.078125 1.046875 -0.125q0.40625 -0.046875 0.59375 -0.15625q0.1875 -0.125 0.1875 -0.375l0 -0.03125q0 -0.421875 -0.15625 -0.6875q-0.15625 -0.28125 -0.46875 -0.4375q-0.296875 -0.15625 -0.765625 -0.15625q-0.46875 0 -0.8125 0.15625q-0.34375 0.140625 -0.5625 0.375q-0.203125 0.21875 -0.3125 0.46875l-1.34375 -0.359375q0.25 -0.640625 0.703125 -1.03125q0.46875 -0.40625 1.0625 -0.578125q0.609375 -0.1875 1.234375 -0.1875q0.453125 0 0.9375 0.109375q0.5 0.09375 0.9375 0.375q0.4375 0.265625 0.703125 0.765625q0.28125 0.484375 0.28125 1.28125l0 4.828125l-1.390625 0l0 -1.0l-0.078125 0q-0.140625 0.28125 -0.421875 0.546875q-0.28125 0.265625 -0.703125 0.4375q-0.421875 0.171875 -1.015625 0.171875zm0.3125 -1.140625q0.59375 0 1.0 -0.21875q0.421875 -0.234375 0.640625 -0.609375q0.234375 -0.390625 0.234375 -0.8125l0 -0.921875q-0.078125 0.078125 -0.296875 0.140625q-0.21875 0.0625 -0.5 0.109375q-0.28125 0.046875 -0.546875 0.078125q-0.265625 0.03125 -0.421875 0.046875q-0.40625 0.046875 -0.75 0.171875q-0.328125 0.125 -0.53125 0.359375q-0.1875 0.21875 -0.1875 0.609375q0 0.34375 0.171875 0.578125q0.171875 0.234375 0.484375 0.359375q0.3125 0.109375 0.703125 0.109375zm5.2249146 3.703125l0 -10.0l1.390625 0l0 1.1875l0.109375 0q0.140625 -0.21875 0.359375 -0.515625q0.234375 -0.3125 0.640625 -0.53125q0.421875 -0.21875 1.109375 -0.21875q0.875 0 1.546875 0.4375q0.6875 0.4375 1.078125 1.28125q0.40625 0.84375 0.40625 2.015625q0 1.171875 -0.390625 2.015625q-0.390625 0.84375 -1.078125 1.296875q-0.6875 0.453125 -1.5625 0.453125q-0.65625 0 -1.078125 -0.21875q-0.421875 -0.234375 -0.65625 -0.53125q-0.234375 -0.296875 -0.375 -0.53125l-0.078125 0l0 3.859375l-1.421875 0zm3.28125 -3.796875q0.625 0 1.046875 -0.328125q0.4375 -0.34375 0.640625 -0.921875q0.21875 -0.578125 0.21875 -1.296875q0 -0.71875 -0.21875 -1.28125q-0.203125 -0.578125 -0.625 -0.90625q-0.421875 -0.34375 -1.0625 -0.34375q-0.609375 0 -1.03125 0.328125q-0.421875 0.3125 -0.640625 0.875q-0.203125 0.5625 -0.203125 1.328125q0 0.75 0.21875 1.328125q0.21875 0.578125 0.640625 0.90625q0.421875 0.3125 1.015625 0.3125zm8.082718 1.234375q-1.0625 0 -1.84375 -0.46875q-0.78125 -0.46875 -1.203125 -1.296875q-0.421875 -0.84375 -0.421875 -1.96875q0 -1.125 0.40625 -1.96875q0.421875 -0.859375 1.171875 -1.328125q0.765625 -0.484375 1.765625 -0.484375q0.625 0 1.203125 0.203125q0.59375 0.203125 1.046875 0.640625q0.46875 0.4375 0.734375 1.125q0.265625 0.6875 0.265625 1.6875l0 0.5l-5.796875 0l0 -1.0625l5.0625 0l-0.671875 0.34375q0 -0.671875 -0.203125 -1.171875q-0.203125 -0.515625 -0.609375 -0.796875q-0.40625 -0.296875 -1.03125 -0.296875q-0.59375 0 -1.03125 0.296875q-0.421875 0.296875 -0.65625 0.78125q-0.21875 0.46875 -0.21875 1.03125l0 0.734375q0 0.75 0.25 1.265625q0.265625 0.515625 0.71875 0.78125q0.46875 0.265625 1.078125 0.265625q0.40625 0 0.734375 -0.109375q0.328125 -0.125 0.5625 -0.34375q0.234375 -0.234375 0.359375 -0.578125l1.34375 0.3125q-0.171875 0.5625 -0.59375 1.0q-0.40625 0.421875 -1.03125 0.671875q-0.609375 0.234375 -1.390625 0.234375z" fill-rule="nonzero"/><path fill="#000000" fill-opacity="0.0" d="m242.38661 260.84113l132.15749 -76.346466l17.763763 30.803146l-132.15747 76.34645z" fill-rule="evenodd"/><path fill="#666666" d="m289.01157 259.2448q-0.7712097 0.44552612 -1.5252075 0.3578186q-0.7540283 -0.08770752 -1.3920288 -0.693573q-0.63797 -0.6058655 -1.0610657 -1.7148132q-0.4173584 -1.13031 -0.3710327 -2.113449q0.052001953 -1.0044708 0.48287964 -1.7586365q0.44439697 -0.76197815 1.2020569 -1.1996765q0.5817566 -0.3360901 1.0157471 -0.33416748q0.44754028 -0.0059051514 0.7446594 0.16529846q0.31066895 0.16337585 0.49542236 0.32733154l0.08117676 -0.04689026l-0.4309082 -1.1224976l1.244751 -0.71907043l2.5957031 6.9093933l-1.2041321 0.6956177l-0.4210205 -1.0740662l-0.10821533 0.06253052q-0.010406494 0.29470825 -0.11917114 0.70040894q-0.10876465 0.40567017 -0.3918152 0.8218384q-0.26956177 0.4083252 -0.8377991 0.7366028zm-0.14886475 -1.3215027q0.52767944 -0.3048401 0.7696228 -0.82354736q0.24197388 -0.5187378 0.22375488 -1.1758728q-0.004699707 -0.6649475 -0.28466797 -1.3693695q-0.26641846 -0.71221924 -0.65567017 -1.1369781q-0.3835144 -0.44610596 -0.86434937 -0.52923584q-0.46728516 -0.09094238 -1.0084839 0.22169495q-0.5411682 0.3126526 -0.7888794 0.85272217q-0.25549316 0.5265503 -0.23727417 1.18367q0.023956299 0.63578796 0.28048706 1.2995911q0.2508545 0.68518066 0.6421814 1.1448059q0.3970337 0.43829346 0.89346313 0.54849243q0.48864746 0.09664917 1.0298157 -0.2159729zm7.280609 -2.7804108q-0.67648315 0.39079285 -1.2863464 0.49049377q-0.6177063 0.08615112 -1.1260986 -0.10734558q-0.49487305 -0.20132446 -0.8320923 -0.6922302q-0.036956787 -0.032791138 -0.05255127 -0.05986023q-0.015625 -0.027069092 -0.039031982 -0.06768799l1.0969238 -0.8502197q0.32940674 0.47735596 0.7519531 0.52197266q0.4147339 0.031082153 0.94241333 -0.27374268q0.4058838 -0.23446655 0.66033936 -0.543869q0.26797485 -0.31723022 0.3673706 -0.64530945q0.09939575 -0.32809448 -0.029663086 -0.6144409q-0.11553955 -0.29415894 -0.3928833 -0.368515q-0.27163696 -0.095703125 -0.7592163 0.059661865l-1.1552429 0.3425598q-0.93460083 0.28727722 -1.5632019 0.07298279q-0.6228943 -0.23564148 -0.91845703 -0.96713257q-0.25448608 -0.6289215 -0.12335205 -1.2460175q0.13684082 -0.638443 0.5802002 -1.1832886q0.44906616 -0.5661926 1.1390991 -0.964798q0.9741211 -0.5627594 1.7145996 -0.46723938q0.7540283 0.08770752 1.2484131 0.6321869q0.03692627 0.032791138 0.06814575 0.08692932q0.044769287 0.046325684 0.07598877 0.100479126l-1.0157776 0.80332947q-0.26278687 -0.29930115 -0.63900757 -0.38871765q-0.36270142 -0.09724426 -0.90390015 0.21540833q-0.33822632 0.1953888 -0.5791626 0.49697876q-0.24871826 0.28805542 -0.348114 0.61613464q-0.09365845 0.30674744 0.03540039 0.5930939q0.12332153 0.30769348 0.40066528 0.38204956q0.29089355 0.06652832 0.8482361 -0.09301758l1.098999 -0.3461914q0.93460083 -0.28727722 1.5574951 -0.051635742q0.6150818 0.22210693 0.90856934 0.91871643q0.18215942 0.47221375 0.14938354 0.97836304q-0.027069092 0.484787 -0.27111816 0.9686279q-0.23052979 0.47602844 -0.6452637 0.9141083q-0.40899658 0.4167328 -0.9637146 0.7371826zm4.7976685 0.18777466l-3.5615234 -9.491241l1.2176514 -0.7034302l0.4173584 1.13031l0.04058838 -0.023452759q0.023925781 -0.30255127 0.119140625 -0.70040894q0.09524536 -0.39785767 0.3725891 -0.79267883q0.28308105 -0.41615295 0.86486816 -0.75224304q0.66293335 -0.38298035 1.3352661 -0.37438965q0.66452026 -0.0049438477 1.2629395 0.40722656q0.6041565 0.39082336 1.0646973 1.1894226q0.4137268 0.7173767 0.6244812 1.552002q0.2029419 0.8210907 0.13272095 1.6375885q-0.056732178 0.80870056 -0.44906616 1.5045319q-0.400177 0.6822815 -1.1578369 1.1199799q-0.5953064 0.3439026 -1.0506287 0.3362732q-0.45532227 -0.0076446533 -0.787323 -0.17674255q-0.31848145 -0.1769104 -0.49539185 -0.32733154l-0.09472656 0.05470276l1.3889465 3.6908112l-1.244751 0.71907043zm1.4179688 -5.204056q0.54119873 -0.31263733 0.7852478 -0.7964783q0.24975586 -0.505188 0.27056885 -1.094635q0.034332275 -0.5972748 -0.11917114 -1.1762543q-0.16131592 -0.59251404 -0.4345398 -1.0662537q-0.3902893 -0.6767731 -0.9434509 -0.9166107q-0.5531616 -0.23983765 -1.216095 0.1431427q-0.5276489 0.30482483 -0.7852478 0.7964783q-0.24404907 0.48384094 -0.27264404 1.0597687q-0.015106201 0.5681 0.14624023 1.160614q0.16131592 0.59251404 0.45013428 1.0933228q0.3980713 0.6903076 0.9512329 0.93014526q0.54537964 0.2263031 1.1677246 -0.13323975zm7.566986 -2.9458466q-0.7982483 0.46115112 -1.5382385 0.49163818q-0.7477722 0.016952515 -1.3867798 -0.3717804q-0.6468506 -0.4022522 -1.1073914 -1.2008514q-0.46832275 -0.8121338 -0.6249695 -1.6780243q-0.15090942 -0.88723755 0.0025634766 -1.715744q0.15350342 -0.8285217 0.6098633 -1.5071869q0.44857788 -0.6921997 1.192688 -1.1220856q0.6358948 -0.36735535 1.2343445 -0.42434692q0.6119385 -0.06480408 1.0953674 0.17922974q0.49697876 0.23620605 0.8092041 0.77763367q0.32003784 0.5549469 0.24093628 1.105896q-0.086883545 0.53741455 -0.5630188 1.1192322q-0.47613525 0.5818329 -1.347229 1.2294159q-0.86538696 0.62623596 -2.1236572 1.3531189l-0.32940674 -0.9465332q1.0417786 -0.6018219 1.700592 -1.0545807q0.65878296 -0.4527588 0.980896 -0.801239q0.33563232 -0.35630798 0.3808899 -0.65312195q0.050994873 -0.31817627 -0.13635254 -0.6430359q-0.1951294 -0.33839417 -0.596344 -0.37728882q-0.4012146 -0.038894653 -0.87475586 0.23466492q-0.6088257 0.3517151 -0.85650635 0.8917999q-0.23416138 0.5322571 -0.21801758 1.1545105q0.008331299 0.6087036 0.1831665 1.1934052q0.18838501 0.5768738 0.4381714 1.0100098q0.24197388 0.41960144 0.5802307 0.69337463q0.35177612 0.26594543 0.7800293 0.28919983q0.44180298 0.015457153 0.9694519 -0.28936768q0.5682678 -0.3282776 0.8607178 -0.8220215q0.29241943 -0.4937439 0.26693726 -1.0384064l1.2769775 -0.41290283q0.10668945 0.96691895 -0.3991089 1.8726501q-0.50006104 0.88435364 -1.5012512 1.462738zm6.673126 -3.8550262q-0.7846985 0.45333862 -1.5402832 0.4567566q-0.7555847 0.0034179688 -1.4024353 -0.3988495q-0.64108276 -0.4236145 -1.086029 -1.1951294q-0.4293213 -0.74446106 -0.6051941 -1.5811768q-0.16238403 -0.84454346 -0.049468994 -1.6496124q0.12643433 -0.81288147 0.5749817 -1.5050812q0.46209717 -0.70002747 1.2874146 -1.1768036q0.50057983 -0.28918457 0.9980774 -0.39611816q0.48965454 -0.1204834 0.9413452 -0.056610107q0.45169067 0.06387329 0.8440552 0.30636597q0.3923645 0.24250793 0.68273926 0.65219116l-1.0714417 0.9257355q-0.15405273 -0.23582458 -0.35803223 -0.37062073q-0.1982727 -0.15612793 -0.43865967 -0.19769287q-0.2347107 -0.06291199 -0.49020386 -0.0055389404q-0.24978638 0.036026 -0.533905 0.2001648q-0.5411682 0.31263733 -0.7909546 0.8178253q-0.25756836 0.49165344 -0.29193115 1.0889282q-0.02859497 0.57592773 0.11138916 1.1627197q0.15350342 0.57896423 0.43450928 1.0662537q0.24978638 0.433136 0.5958557 0.72042847q0.33822632 0.2737732 0.7394409 0.31266785q0.4069519 0.017547607 0.86694336 -0.24819946q0.29766846 -0.1719513 0.52142334 -0.40948486q0.22375488 -0.23753357 0.3678894 -0.51930237q0.13632202 -0.2952881 0.1737976 -0.60565186q0.050994873 -0.31817627 -0.0025939941 -0.6300659l1.323822 -0.3316803q0.08169556 0.5482788 -0.013000488 1.0721436q-0.102508545 0.51034546 -0.34085083 0.97283936q-0.22479248 0.45466614 -0.5932007 0.84794617q-0.36843872 0.39328003 -0.85549927 0.6746521zm3.9734497 -10.884796l0.4230957 1.108963l-3.4094849 1.969635l-0.4230652 -1.108963l3.4094543 -1.969635zm-3.0910034 -0.19926453l1.2311707 -0.71125793l2.5114136 6.6693726q0.15872192 0.4316101 0.3955078 0.52941895q0.22894287 0.08425903 0.5942383 -0.12677002q0.09472656 -0.05470276 0.24926758 -0.16203308q0.14675903 -0.12086487 0.23937988 -0.21046448l0.6317444 0.97036743q-0.15820312 0.16355896 -0.3861084 0.33132935q-0.206604 0.17347717 -0.4230652 0.29852295q-0.86590576 0.5002289 -1.5293884 0.28804016q-0.64993286 -0.22001648 -0.9673767 -1.0832367l-2.5467834 -6.793289zm10.010071 4.611084l-2.5957031 -6.9093933l1.2041626 -0.6956177l0.4230652 1.1089478l0.06765747 -0.03907776q-0.0395813 -0.6628418 0.27005005 -1.2206573q0.31533813 -0.57914734 0.87005615 -0.8996124q0.12176514 -0.07034302 0.27838135 -0.14277649q0.14883423 -0.08598328 0.26489258 -0.13497925l0.48394775 1.3083801q-0.09677124 0.019821167 -0.29400635 0.1157074q-0.20501709 0.082351685 -0.3809204 0.18395996q-0.43292236 0.2501068 -0.71029663 0.6449127q-0.26382446 0.3869934 -0.32000732 0.85253906q-0.06399536 0.4520111 0.110321045 0.9106903l1.5731506 4.1979065l-1.244751 0.71907043zm6.646179 -3.6770477q-0.7711792 0.44551086 -1.5252075 0.35780334q-0.7540283 -0.08770752 -1.3919983 -0.693573q-0.6380005 -0.6058502 -1.0610657 -1.7148132q-0.4173584 -1.13031 -0.37106323 -2.1134338q0.05203247 -1.0044861 0.48287964 -1.7586365q0.44439697 -0.76197815 1.2020569 -1.1996765q0.5817871 -0.3360901 1.0157776 -0.33418274q0.44750977 -0.0058898926 0.7446594 0.16529846q0.31066895 0.16339111 0.49539185 0.3273468l0.08117676 -0.046905518l-0.4308777 -1.1224823l1.2447205 -0.71907043l2.5957031 6.9093933l-1.2041321 0.6956177l-0.42099 -1.0740662l-0.10824585 0.06251526q-0.010406494 0.29473877 -0.119140625 0.70040894q-0.10876465 0.40568542 -0.3918457 0.8218384q-0.26956177 0.4083557 -0.8377991 0.73661804zm-0.14883423 -1.321518q0.5276489 -0.30480957 0.7696228 -0.82354736q0.24197388 -0.51872253 0.22375488 -1.1758575q-0.004699707 -0.6649475 -0.28466797 -1.3693695q-0.26644897 -0.7122345 -0.65567017 -1.1369781q-0.38354492 -0.44610596 -0.86434937 -0.52923584q-0.46731567 -0.09094238 -1.0084839 0.22169495q-0.54119873 0.31263733 -0.7888794 0.85272217q-0.25549316 0.52653503 -0.23727417 1.18367q0.023925781 0.63578796 0.28048706 1.2995911q0.25082397 0.6851654 0.6421509 1.1448059q0.3970642 0.43829346 0.89349365 0.54849243q0.48861694 0.09666443 1.0298157 -0.21598816zm4.999176 -10.051804l0.4230957 1.1089478l-3.4094849 1.969635l-0.4230652 -1.108963l3.4094543 -1.9696198zm-3.0910034 -0.19927979l1.2312012 -0.71125793l2.511383 6.669388q0.15872192 0.4316101 0.3955078 0.5294037q0.22894287 0.08427429 0.5942688 -0.12677002q0.094696045 -0.05470276 0.24923706 -0.16203308q0.14675903 -0.12086487 0.23937988 -0.21046448l0.6317444 0.97036743q-0.15820312 0.16357422 -0.3861084 0.33132935q-0.206604 0.17347717 -0.4230652 0.2985382q-0.86590576 0.5002136 -1.5293884 0.2880249q-0.64993286 -0.22001648 -0.9673767 -1.0832367l-2.5467834 -6.793289zm6.9332886 6.3885345l-2.5957031 -6.9093933l1.244751 -0.71907043l2.5957031 6.9093933l-1.244751 0.71907043zm-2.3651733 -8.323746q-0.32470703 0.1875763 -0.6390381 0.080444336q-0.31430054 -0.10714722 -0.44543457 -0.42837524q-0.12542725 -0.34259033 0.02029419 -0.71546936q0.14569092 -0.3728943 0.45687866 -0.5526581q0.32470703 -0.18759155 0.63900757 -0.080444336q0.31430054 0.10714722 0.45324707 0.4419098q0.117614746 0.32904053 -0.028076172 0.7019348q-0.13217163 0.36506653 -0.45687866 0.5526581zm8.062561 5.21286q-0.7982483 0.46113586 -1.553833 0.46455383q-0.7420654 -0.0043945312 -1.3888855 -0.40664673q-0.6333008 -0.41007996 -1.086029 -1.1951447q-0.4293213 -0.7444458 -0.6052246 -1.5811768q-0.16238403 -0.8445282 -0.03591919 -1.6574097q0.118621826 -0.8264313 0.5749817 -1.5050964q0.46209717 -0.7000122 1.2738647 -1.1689758q0.784729 -0.45332336 1.5403137 -0.45674133q0.7477722 -0.016952515 1.381073 0.39312744q0.64682007 0.4022522 1.1073608 1.2008514q0.4371338 0.7579956 0.5994873 1.6025238q0.16809082 0.82318115 0.028137207 1.6438904q-0.12646484 0.81288147 -0.5885315 1.5128937q-0.44854736 0.69221497 -1.2467957 1.1533508zm-0.5818176 -1.0714111q0.554718 -0.32044983 0.8123169 -0.8121033q0.24975586 -0.505188 0.27838135 -1.0811157q0.034332275 -0.5972748 -0.11917114 -1.176239q-0.15353394 -0.5789795 -0.4267273 -1.0527191q-0.25759888 -0.44667053 -0.609375 -0.71261597q-0.33822632 -0.2737732 -0.7529907 -0.30485535q-0.40118408 -0.038894653 -0.86120605 0.22685242q-0.5411682 0.31263733 -0.7909546 0.8178253q-0.25756836 0.49165344 -0.29193115 1.0889282q-0.02859497 0.5759125 0.13272095 1.1684265q0.15350342 0.5789795 0.4267273 1.0527191q0.3824768 0.6632385 0.9512329 0.93014526q0.5745239 0.24555969 1.2509766 -0.14524841z" fill-rule="nonzero"/><path fill="#000000" fill-opacity="0.0" d="m250.54227 292.69235l143.2756 82.70868l-17.763794 30.803131l-143.27559 -82.70865z" fill-rule="evenodd"/><path fill="#666666" d="m287.39523 339.31848q-0.7848511 -0.45309448 -1.165863 -1.1060181q-0.38101196 -0.6529541 -0.35662842 -1.4146423q0.045776367 -0.76742554 0.49069214 -1.5389404q0.4293213 -0.7444763 1.0652771 -1.3155212q0.6494751 -0.5632324 1.4025269 -0.8682251q0.76660156 -0.29714966 1.5899353 -0.2548523q0.83688354 0.050109863 1.6623535 0.5266113q0.5006714 0.28903198 0.84213257 0.6665344q0.34924316 0.36398315 0.5199585 0.7872925q0.17074585 0.42330933 0.15725708 0.88461304q-0.013519287 0.4612732 -0.22268677 0.9178467l-1.3370667 -0.4651184q0.12695312 -0.25146484 0.14151001 -0.495636q0.03591919 -0.24990845 -0.048431396 -0.4790039q-0.06298828 -0.23483276 -0.24047852 -0.42749023q-0.15612793 -0.19839478 -0.44030762 -0.36242676q-0.5412903 -0.31246948 -1.103363 -0.27612305q-0.55426025 0.022827148 -1.0882263 0.29193115q-0.5126343 0.2633667 -0.95028687 0.6782532q-0.4241333 0.42269897 -0.70513916 0.90997314q-0.24978638 0.433136 -0.32522583 0.876709q-0.06762695 0.4300537 0.09945679 0.79711914q0.18841553 0.36135864 0.64852905 0.6269531q0.29769897 0.171875 0.61517334 0.2468872q0.31747437 0.07501221 0.63339233 0.058929443q0.32369995 -0.029632568 0.61099243 -0.15246582q0.30081177 -0.11502075 0.54382324 -0.31750488l0.94937134 0.9810486q-0.4335022 0.34509277 -0.9341736 0.525177q-0.49282837 0.16653442 -1.0122375 0.19143677q-0.5058899 0.032714844 -1.0304871 -0.08969116q-0.5246277 -0.12243652 -1.0117798 -0.403656zm6.1248474 3.463501q-0.63601685 -0.36712646 -0.92645264 -0.8956299q-0.2769165 -0.5206909 -0.16195679 -1.1579285q0.12850952 -0.62945557 0.71658325 -1.3363953l2.960022 -3.6315613l1.2449646 0.71868896l-2.8606567 3.4904785q-0.49853516 0.61428833 -0.44073486 1.1708374q0.0791626 0.5508728 0.68811035 0.9024048q0.41949463 0.24215698 0.87280273 0.2692871q0.4746399 0.02142334 0.9268799 -0.16854858q0.460083 -0.20349121 0.8378906 -0.67099l2.7768555 -3.3764648l1.2314148 0.71087646l-4.6794434 5.7060547l-1.1773071 -0.67962646l1.1334534 -1.4024353l0.121795654 0.0703125q-0.9112854 0.6105652 -1.7330627 0.6593933q-0.80044556 0.04309082 -1.5311584 -0.37875366zm4.8581543 2.696228l4.679474 -5.7060547l1.2043457 0.69525146l-0.74780273 0.92141724l0.06765747 0.0390625q0.55374146 -0.36593628 1.1912842 -0.37677002q0.6588745 -0.016571045 1.2136841 0.30371094q0.121795654 0.0703125 0.2628479 0.16976929q0.14883423 0.0859375 0.2492981 0.16195679l-0.8898926 1.0739746q-0.065582275 -0.07394409 -0.2472229 -0.19683838q-0.17382812 -0.13644409 -0.34976196 -0.23800659q-0.43301392 -0.24996948 -0.9133911 -0.2927246q-0.4668579 -0.034973145 -0.8977661 0.14929199q-0.4230957 0.17068481 -0.73275757 0.551239l-2.8450317 3.4634094l-1.2449646 -0.71868896zm6.4632263 3.7310486l2.297821 -7.0809326l1.285553 0.74212646l-1.4189758 3.961853q-0.23519897 0.65808105 -0.52453613 1.2848816q-0.28152466 0.61328125 -0.5708313 1.2400818l-0.36538696 -0.21090698q0.6005554 -0.44714355 1.1798096 -0.8885803q0.5870056 -0.45492554 1.2416992 -0.8708496l3.8953857 -2.532318l1.3802795 0.79678345l-7.0476074 4.33902l-1.3532104 -0.78115845zm6.8578796 4.1211853q-0.7713318 -0.44525146 -1.0727234 -1.1424255q-0.3013916 -0.6972046 -0.09637451 -1.5531006q0.20498657 -0.855896 0.9527893 -1.7773438q0.76916504 -0.92715454 1.6429749 -1.3789368q0.8951416 -0.457489 1.7632446 -0.46154785q0.8816223 0.0037841797 1.6394348 0.44125366q0.58187866 0.33590698 0.7973633 0.7128601q0.2290039 0.38479614 0.22955322 0.7279053q0.0140686035 0.35092163 -0.035339355 0.5930176l0.08117676 0.046844482l0.75564575 -0.9349365l1.2449341 0.71865845l-4.6794434 5.7060547l-1.2043762 -0.69522095l0.71868896 -0.90216064l-0.10824585 -0.0625q-0.2602234 0.13845825 -0.6656494 0.24719238q-0.40542603 0.10876465 -0.907135 0.07171631q-0.4881897 -0.02923584 -1.0565186 -0.35733032zm1.0689392 -0.79016113q0.5277405 0.30465698 1.0976257 0.25476074q0.56988525 -0.04989624 1.129364 -0.3944702q0.5729675 -0.336792 1.0423889 -0.9317932q0.48291016 -0.58721924 0.65567017 -1.1369934q0.1940918 -0.55548096 0.025421143 -1.0137024q-0.15512085 -0.45037842 -0.6963806 -0.7628174q-0.5412903 -0.31246948 -1.1325073 -0.25686646q-0.58343506 0.04208374 -1.1428833 0.3866577q-0.53811646 0.3388672 -0.98410034 0.89328q-0.46731567 0.56015015 -0.66922 1.1291809q-0.18057251 0.56329346 -0.027526855 1.048584q0.16085815 0.4717102 0.70214844 0.7841797zm11.198456 -0.6979675l-0.74783325 0.92141724l-3.4100647 -1.9685364l0.74780273 -0.92141724l3.4100952 1.9685364zm-1.374176 -2.777832l1.2314453 0.71084595l-4.513977 5.5129395q-0.29403687 0.3534546 -0.26019287 0.60754395q0.041656494 0.24053955 0.40701294 0.45144653q0.09472656 0.0546875 0.2649231 0.1348877q0.17800903 0.06668091 0.30187988 0.10211182l-0.52349854 1.0328674q-0.2206726 -0.0552063 -0.47988892 -0.1687622q-0.2534485 -0.0921936 -0.4699707 -0.21716309q-0.86605835 -0.49996948 -1.0144348 -1.1809998q-0.13482666 -0.67318726 0.45321655 -1.380127l4.603485 -5.605591zm0.03274536 10.5190735q-0.6359863 -0.36712646 -0.92645264 -0.8956299q-0.276886 -0.5206909 -0.16192627 -1.1579285q0.12850952 -0.62945557 0.71655273 -1.3363953l2.9600525 -3.6315613l1.2449646 0.71868896l-2.8606567 3.4904785q-0.49853516 0.61428833 -0.44073486 1.1708679q0.07913208 0.5508423 0.68807983 0.90237427q0.41949463 0.24215698 0.87280273 0.2692871q0.4746704 0.02142334 0.9269104 -0.16854858q0.4600525 -0.20349121 0.8378906 -0.6709595l2.7768555 -3.3764954l1.2314148 0.71087646l-4.6794434 5.7060547l-1.1773071 -0.67962646l1.1334534 -1.4024353l0.12176514 0.0703125q-0.9112549 0.6105652 -1.7330322 0.6593933q-0.80044556 0.04309082 -1.531189 -0.37875366zm4.858185 2.6962585l4.679474 -5.706085l1.2043457 0.69525146l-0.74780273 0.92141724l0.06765747 0.0390625q0.55371094 -0.36593628 1.1912537 -0.37677002q0.658905 -0.016540527 1.2137146 0.30371094q0.121795654 0.0703125 0.2628479 0.16976929q0.14883423 0.0859375 0.2492981 0.16195679l-0.8898926 1.0739746q-0.065582275 -0.07394409 -0.2472229 -0.19683838q-0.17382812 -0.13644409 -0.34976196 -0.23800659q-0.43301392 -0.24996948 -0.9133911 -0.2927246q-0.4668579 -0.034942627 -0.8977661 0.14929199q-0.42312622 0.17068481 -0.73275757 0.551239l-2.8450317 3.4634094l-1.2449646 -0.71865845zm6.9050293 4.1664734q-0.7984009 -0.46090698 -1.1950073 -1.0867615q-0.38882446 -0.6394043 -0.3722229 -1.3875732q0.024414062 -0.76168823 0.48495483 -1.5603027q0.46835327 -0.8121338 1.1391602 -1.381073q0.6921692 -0.57470703 1.4858093 -0.8562317q0.79367065 -0.28155518 1.6092224 -0.22573853q0.82333374 0.042297363 1.5675964 0.47195435q0.63601685 0.36712646 0.9847412 0.8571167q0.36227417 0.49780273 0.39300537 1.0387573q0.044281006 0.5487366 -0.26794434 1.0901794q-0.32003784 0.55496216 -0.8363037 0.76208496q-0.50845337 0.19360352 -1.2501221 0.07217407q-0.7416382 -0.121398926 -1.737793 -0.552124q-0.974823 -0.4364624 -2.233307 -1.1629333l0.6541443 -0.7590027q1.0419617 0.60150146 1.7633362 0.94573975q0.7213745 0.3442688 1.1840515 0.4489746q0.4761963 0.11254883 0.75567627 0.0032348633q0.30081177 -0.11502075 0.48815918 -0.43984985q0.1951294 -0.33840942 0.028045654 -0.70547485q-0.16708374 -0.36709595 -0.64071655 -0.6405029q-0.60894775 -0.35150146 -1.2001648 -0.29589844q-0.57769775 0.063446045 -1.1080017 0.38876343q-0.52249146 0.31176758 -0.94091797 0.75582886q-0.4048767 0.45184326 -0.6546631 0.88497925q-0.24197388 0.4196167 -0.30960083 0.8496399q-0.054107666 0.4378662 0.14004517 0.82055664q0.20770264 0.39053345 0.7354431 0.6951904q0.5683594 0.32809448 1.1418762 0.33441162q0.57354736 0.0063476562 1.0320435 -0.28826904l0.9961853 0.8998108q-0.78323364 0.5762329 -1.8199463 0.5911865q-1.0154114 0.009216309 -2.0167847 -0.56884766z" fill-rule="nonzero"/><path fill="#000000" fill-opacity="0.0" d="m209.42117 243.18103l-0.0315094 -146.83466l35.559067 0l0.03149414 146.83466z" fill-rule="evenodd"/><path fill="#666666" d="m231.37009 209.03932q1.9836426E-4 0.90625 -0.3746643 1.5625q-0.3748474 0.65625 -1.0466461 1.015625q-0.68743896 0.34375 -1.578064 0.34375q-0.859375 0 -1.6719208 -0.265625q-0.81256104 -0.28125 -1.4532928 -0.78125q-0.6407471 -0.515625 -1.0158997 -1.25q-0.3751526 -0.75 -0.3753662 -1.703125q-1.2207031E-4 -0.578125 0.15602112 -1.0625q0.14051819 -0.484375 0.4216919 -0.84375q0.2811737 -0.359375 0.6873779 -0.578125q0.40620422 -0.21875 0.9062042 -0.265625l0.26591492 1.390625q-0.28125 0.015625 -0.49996948 0.125q-0.23435974 0.09375 -0.39056396 0.28125q-0.17184448 0.171875 -0.24990845 0.421875q-0.09370422 0.234375 -0.09362793 0.5625q1.2207031E-4 0.625 0.31272888 1.09375q0.2969818 0.46875 0.79704285 0.796875q0.4844513 0.3125 1.0626068 0.484375q0.5781555 0.15625 1.1406555 0.15625q0.5 0 0.9218445 -0.15625q0.40621948 -0.15625 0.6405182 -0.484375q0.2186737 -0.34375 0.2185669 -0.875q-7.6293945E-5 -0.34375 -0.09388733 -0.65625q-0.093826294 -0.3125 -0.26574707 -0.578125q-0.18756104 -0.265625 -0.4376068 -0.453125q-0.25004578 -0.203125 -0.54693604 -0.3125l0.37471008 -1.3125q0.5156708 0.203125 0.9219971 0.546875q0.3907013 0.34375 0.67204285 0.78125q0.28134155 0.421875 0.43769836 0.9375q0.15635681 0.515625 0.15647888 1.078125zm-0.0016479492 -7.6923065q1.9836426E-4 0.921875 -0.3746643 1.578125q-0.37486267 0.640625 -1.0466461 1.0q-0.67181396 0.34375 -1.578064 0.34375q-0.859375 0 -1.6719208 -0.265625q-0.81256104 -0.28125 -1.4533081 -0.796875q-0.6563568 -0.515625 -1.0158844 -1.25q-0.37516785 -0.75 -0.3753662 -1.6875q-1.9836426E-4 -0.90625 0.3746643 -1.5625q0.35923767 -0.65625 1.0310364 -1.0q0.6717987 -0.359375 1.5936737 -0.359375q0.875 0 1.687561 0.28125q0.79693604 0.265625 1.4376678 0.796875q0.6407318 0.515625 1.0158997 1.265625q0.3751526 0.734375 0.37535095 1.65625zm-1.21875 -0.03125q-1.373291E-4 -0.640625 -0.29711914 -1.109375q-0.31259155 -0.46875 -0.79704285 -0.78125q-0.50006104 -0.328125 -1.0782318 -0.484375q-0.5781555 -0.15625 -1.1250305 -0.15625q-0.515625 0 -0.9218292 0.171875q-0.40621948 0.15625 -0.6405182 0.5q-0.23431396 0.328125 -0.2341919 0.859375q1.373291E-4 0.625 0.31272888 1.09375q0.2969818 0.46875 0.79704285 0.796875q0.4844513 0.3125 1.0782318 0.46875q0.5781555 0.15625 1.1250305 0.15625q0.765625 0 1.2811737 -0.359375q0.4999237 -0.375 0.49975586 -1.15625zm1.0614471 -4.9004974l-7.2815094 -1.203125l-3.0517578E-4 -1.390625l1.1719208 0.1875l-1.5258789E-5 -0.078125q-0.59381104 -0.296875 -0.9220581 -0.84375q-0.34387207 -0.5625 -0.3440094 -1.203125q-3.0517578E-5 -0.140625 0.015563965 -0.3125q-4.5776367E-5 -0.171875 0.015563965 -0.296875l1.3750458 0.234375q-0.031234741 0.09375 -0.046813965 0.3125q-0.031204224 0.21875 -0.031158447 0.421875q1.0681152E-4 0.5 0.20332336 0.9375q0.20321655 0.421875 0.5782776 0.703125q0.35943604 0.28125 0.8438263 0.359375l4.422043 0.734375l3.0517578E-4 1.4375zm-4.267227 -7.470642l4.2657776 0.703125l3.0517578E-4 1.4375l-7.2815094 -1.203125l-2.89917E-4 -1.359375l1.781311 0.265625l-0.046844482 0.15625q-0.9532318 -0.46875 -1.3752441 -1.125q-0.43763733 -0.65625 -0.43782043 -1.484375q-1.6784668E-4 -0.765625 0.32785034 -1.28125q0.3123932 -0.53125 0.9373474 -0.75q0.6093292 -0.21875 1.5156097 -0.0625l4.5782776 0.75l3.0517578E-4 1.421875l-4.4845276 -0.734375q-0.8125305 -0.140625 -1.2187042 0.203125q-0.42181396 0.328125 -0.42166138 1.0q1.0681152E-4 0.515625 0.23457336 0.953125q0.21884155 0.421875 0.6407776 0.71875q0.4063263 0.296875 0.98446655 0.390625zm4.419937 -9.033325q1.9836426E-4 0.921875 -0.3434143 1.578125q-0.35923767 0.65625 -1.0154114 1.015625q-0.6717987 0.359375 -1.5936737 0.359375q-0.9375 0 -1.765686 -0.296875q-0.84381104 -0.3125 -1.4845581 -0.859375q-0.6407471 -0.546875 -1.0002747 -1.28125q-0.3751526 -0.734375 -0.3753357 -1.59375q-1.6784668E-4 -0.734375 0.24972534 -1.28125q0.24987793 -0.5625 0.7029419 -0.859375q0.4530487 -0.3125 1.0780487 -0.3125q0.640625 0 1.0782013 0.34375q0.4219513 0.34375 0.6877289 1.046875q0.2657776 0.703125 0.39100647 1.78125q0.10960388 1.0625 0.10990906 2.515625l-0.9844055 -0.1875q-2.593994E-4 -1.203125 -0.062942505 -2.0q-0.06266785 -0.796875 -0.2033844 -1.25q-0.14073181 -0.46875 -0.37513733 -0.65625q-0.25004578 -0.203125 -0.6250458 -0.203125q-0.390625 0 -0.62493896 0.328125q-0.2342987 0.328125 -0.23417664 0.875q1.5258789E-4 0.703125 0.34399414 1.1875q0.3438568 0.46875 0.89079285 0.765625q0.53131104 0.296875 1.1250916 0.4375q0.5937805 0.125 1.0937805 0.125q0.484375 0 0.8905945 -0.15625q0.40621948 -0.171875 0.6405029 -0.53125q0.2342987 -0.375 0.23417664 -0.984375q-1.5258789E-4 -0.65625 -0.2815094 -1.15625q-0.2813568 -0.5 -0.7657776 -0.75l0.28096008 -1.3125q0.89071655 0.390625 1.4221497 1.28125q0.51582336 0.875 0.5160675 2.03125zm-0.15722656 -4.5816193l-7.2815094 -1.203125l-3.0517578E-4 -1.390625l1.1719208 0.1875l-1.5258789E-5 -0.078125q-0.5938263 -0.296875 -0.9220581 -0.84375q-0.34387207 -0.5625 -0.3440094 -1.203125q-3.0517578E-5 -0.140625 0.015548706 -0.3125q-3.0517578E-5 -0.171875 0.015563965 -0.296875l1.375061 0.234375q-0.031234741 0.09375 -0.046813965 0.3125q-0.031204224 0.21875 -0.031158447 0.421875q1.0681152E-4 0.5 0.20332336 0.9375q0.20321655 0.421875 0.5782776 0.703125q0.35943604 0.28125 0.8438263 0.359375l4.4220276 0.734375l3.2043457E-4 1.4375zm-0.001876831 -8.71405l-7.2815094 -1.203125l-2.89917E-4 -1.390625l1.1719055 0.1875l-1.5258789E-5 -0.078125q-0.59381104 -0.296875 -0.9220581 -0.84375q-0.34387207 -0.5625 -0.3440094 -1.203125q-3.0517578E-5 -0.140625 0.015563965 -0.3125q-3.0517578E-5 -0.171875 0.015563965 -0.296875l1.3750458 0.234375q-0.031234741 0.09375 -0.046813965 0.3125q-0.031188965 0.21875 -0.031158447 0.421875q1.0681152E-4 0.5 0.20333862 0.9375q0.2032013 0.421875 0.5782623 0.703125q0.35943604 0.28125 0.8438263 0.359375l4.422043 0.734375l3.0517578E-4 1.4375zm0.13899231 -7.594345q1.9836426E-4 0.890625 -0.45280457 1.5q-0.45298767 0.609375 -1.2966919 0.859375q-0.84368896 0.25 -2.0156097 0.0625q-1.1875458 -0.203125 -2.0157776 -0.734375q-0.8438721 -0.546875 -1.2815247 -1.296875q-0.43766785 -0.765625 -0.43785095 -1.640625q-1.5258789E-4 -0.671875 0.21852112 -1.046875q0.21865845 -0.390625 0.5155029 -0.5625q0.29682922 -0.1875 0.53118896 -0.265625l-1.5258789E-5 -0.09375l-1.1875458 -0.1875l-3.0517578E-4 -1.4375l7.2815094 1.203125l3.0517578E-4 1.390625l-1.1406708 -0.171875l3.0517578E-5 0.125q0.25003052 0.15625 0.54696655 0.453125q0.2969513 0.296875 0.51579285 0.75q0.21884155 0.4375 0.21897888 1.09375zm-1.2188568 -0.53125q-1.373291E-4 -0.609375 -0.32835388 -1.078125q-0.3282318 -0.46875 -0.90641785 -0.78125q-0.5782013 -0.328125 -1.3282166 -0.4375q-0.7500305 -0.125 -1.3125 0q-0.57810974 0.109375 -0.89053345 0.484375q-0.3124237 0.359375 -0.31228638 0.984375q1.373291E-4 0.625 0.34399414 1.109375q0.3282318 0.484375 0.90641785 0.796875q0.56256104 0.296875 1.2657166 0.40625q0.71876526 0.125 1.3125 0.015625q0.5780945 -0.125 0.9217682 -0.5q0.3280487 -0.375 0.32791138 -1.0zm1.2170715 -7.805374q2.4414062E-4 1.15625 -0.7652283 1.859375q-0.7810974 0.703125 -2.1404724 0.703125q-0.859375 0 -1.6719208 -0.234375q-0.82818604 -0.25 -1.4845276 -0.71875q-0.6563568 -0.46875 -1.0471191 -1.140625q-0.3907776 -0.6875 -0.3909607 -1.546875q-1.5258789E-4 -0.703125 0.23414612 -1.09375q0.21865845 -0.390625 0.5311127 -0.578125q0.31246948 -0.203125 0.54681396 -0.296875l-1.5258789E-5 -0.078125l-3.656372 -0.59375l-3.0517578E-4 -1.4375l9.703461 1.609375l3.0517578E-4 1.390625l-1.1406708 -0.203125l3.0517578E-5 0.125q0.26565552 0.171875 0.56259155 0.453125q0.29693604 0.265625 0.5157776 0.703125q0.20321655 0.4375 0.20335388 1.078125zm-1.2188263 -0.359375q-1.373291E-4 -0.609375 -0.29710388 -1.0625q-0.2969818 -0.46875 -0.79704285 -0.78125q-0.50006104 -0.3125 -1.0938416 -0.46875q-0.5937958 -0.15625 -1.1719208 -0.15625q-0.78125 0 -1.2499084 0.375q-0.4686737 0.359375 -0.46852112 1.09375q1.373291E-4 0.609375 0.29710388 1.078125q0.29696655 0.453125 0.78141785 0.765625q0.48443604 0.296875 1.0782166 0.46875q0.5781708 0.15625 1.1562958 0.15625q0.78125 0 1.2811737 -0.359375q0.4842987 -0.359375 0.48413086 -1.109375zm1.0770264 -5.1204834l-7.2815094 -1.203125l-3.0517578E-4 -1.4375l7.2815094 1.203125l3.0517578E-4 1.4375zm-8.391083 -2.109375q9.1552734E-5 0.375 -0.24986267 0.59375q-0.24995422 0.21875 -0.5937195 0.171875q-0.35939026 -0.0625 -0.6094513 -0.375q-0.2500763 -0.3125 -0.2501526 -0.671875q-7.6293945E-5 -0.375 0.24987793 -0.59375q0.24995422 -0.21875 0.6093445 -0.171875q0.34376526 0.0625 0.5938263 0.375q0.25006104 0.296875 0.25013733 0.671875zm8.483582 -3.7239532q1.5258789E-4 0.734375 -0.31222534 1.25q-0.3123932 0.5 -0.9217224 0.71875q-0.6093292 0.203125 -1.515625 0.046875l-4.6251526 -0.75l-3.0517578E-4 -1.4375l4.4532776 0.734375q0.7812805 0.125 1.2343292 -0.203125q0.4374237 -0.34375 0.43727112 -1.046875q-9.1552734E-5 -0.484375 -0.2033081 -0.890625q-0.21884155 -0.421875 -0.6095276 -0.71875q-0.40631104 -0.296875 -1.0000916 -0.390625l-4.3126526 -0.71875l-3.0517578E-4 -1.421875l7.2815094 1.203125l2.89917E-4 1.359375l-1.781311 -0.28125l-3.0517578E-5 -0.140625q0.9844818 0.484375 1.4377594 1.171875q0.43763733 0.671875 0.43782043 1.515625zm0.06074524 -8.211716q1.6784668E-4 0.78125 -0.21846008 1.359375q-0.23425293 0.578125 -0.65605164 0.921875q-0.42181396 0.328125 -1.0155487 0.375q-0.046875 0.015625 -0.078125 0.015625q-0.03125 0 -0.078125 0l-0.18778992 -1.375q0.57810974 -0.046875 0.82803345 -0.390625q0.23431396 -0.34375 0.23417664 -0.953125q-1.0681152E-4 -0.46875 -0.1408081 -0.84375q-0.1407013 -0.390625 -0.37513733 -0.640625q-0.23442078 -0.25 -0.54693604 -0.28125q-0.31251526 -0.046875 -0.5155945 0.15625q-0.21870422 0.1875 -0.3279724 0.6875l-0.28100586 1.171875q-0.21853638 0.953125 -0.7184448 1.390625q-0.51553345 0.421875 -1.296814 0.3125q-0.67189026 -0.09375 -1.1407318 -0.515625q-0.48446655 -0.4375 -0.7346039 -1.09375q-0.2657776 -0.671875 -0.26594543 -1.46875q-2.4414062E-4 -1.125 0.4527588 -1.71875q0.45298767 -0.609375 1.1717072 -0.765625q0.046875 -0.015625 0.109375 -0.015625q0.0625 -0.015625 0.125 -0.015625l0.18777466 1.28125q-0.39060974 0.078125 -0.6561737 0.359375q-0.26556396 0.265625 -0.2654419 0.890625q9.1552734E-5 0.390625 0.14079285 0.75q0.1250763 0.359375 0.35949707 0.609375q0.21881104 0.234375 0.53131104 0.265625q0.32814026 0.046875 0.5312195 -0.15625q0.20307922 -0.21875 0.34358215 -0.78125l0.24975586 -1.125q0.21855164 -0.953125 0.7340851 -1.375q0.49990845 -0.421875 1.2499237 -0.328125q0.50001526 0.078125 0.9219513 0.359375q0.40631104 0.265625 0.7032776 0.71875q0.2969818 0.4375 0.46897888 1.015625q0.15637207 0.5625 0.1565094 1.203125z" fill-rule="nonzero"/><path fill="#eeeeee" d="m23.763483 328.9577l15.590551 0l0 92.69293l-15.590551 0z" fill-rule="evenodd"/><path stroke="#595959" stroke-width="2.0" stroke-linejoin="round" stroke-linecap="butt" d="m23.763483 328.9577l15.590551 0l0 92.69293l-15.590551 0z" fill-rule="evenodd"/><path fill="#eeeeee" d="m447.83218 146.65056l0 15.590546l-92.69293 0l0 -15.590546z" fill-rule="evenodd"/><path stroke="#595959" stroke-width="2.0" stroke-linejoin="round" stroke-linecap="butt" d="m447.83218 146.65056l0 15.590546l-92.69293 0l0 -15.590546z" fill-rule="evenodd"/><path fill="#eeeeee" d="m192.33215 32.396576l0 0c0 -15.159563 12.289261 -27.448818 27.448822 -27.448818l0 0c7.2798767 0 14.261597 2.891921 19.40924 8.039574c5.1476593 5.1476526 8.039581 12.129367 8.039581 19.409245l0 0c0 15.159565 -12.289261 27.448818 -27.448822 27.448818l0 0c-15.159561 0 -27.448822 -12.289253 -27.448822 -27.448818z" fill-rule="evenodd"/><path stroke="#595959" stroke-width="2.0" stroke-linejoin="round" stroke-linecap="butt" d="m192.33215 32.396576l0 0c0 -15.159563 12.289261 -27.448818 27.448822 -27.448818l0 0c7.2798767 0 14.261597 2.891921 19.40924 8.039574c5.1476593 5.1476526 8.039581 12.129367 8.039581 19.409245l0 0c0 15.159565 -12.289261 27.448818 -27.448822 27.448818l0 0c-15.159561 0 -27.448822 -12.289253 -27.448822 -27.448818z" fill-rule="evenodd"/><path fill="#000000" fill-opacity="0.0" d="m331.81595 404.30157l128.189 0l0 35.55905l-128.189 0z" fill-rule="evenodd"/><path fill="#000000" d="m372.8371 426.25784q-1.015625 0 -1.78125 -0.46875q-0.765625 -0.46875 -1.1875 -1.3125q-0.421875 -0.859375 -0.421875 -1.96875q0 -1.140625 0.421875 -1.984375q0.421875 -0.859375 1.1875 -1.3125q0.765625 -0.46875 1.78125 -0.46875q0.578125 0 1.0625 0.140625q0.5 0.140625 0.890625 0.421875q0.40625 0.28125 0.6875 0.6875q0.28125 0.390625 0.40625 0.890625l-1.359375 0.328125q-0.0625 -0.28125 -0.21875 -0.515625q-0.140625 -0.234375 -0.359375 -0.390625q-0.21875 -0.171875 -0.5 -0.265625q-0.265625 -0.09375 -0.59375 -0.09375q-0.65625 0 -1.09375 0.359375q-0.4375 0.34375 -0.65625 0.921875q-0.203125 0.578125 -0.203125 1.28125q0 0.6875 0.203125 1.265625q0.21875 0.578125 0.65625 0.921875q0.4375 0.34375 1.09375 0.34375q0.328125 0 0.609375 -0.09375q0.28125 -0.09375 0.5 -0.265625q0.234375 -0.171875 0.375 -0.40625q0.15625 -0.25 0.21875 -0.546875l1.359375 0.328125q-0.140625 0.515625 -0.421875 0.921875q-0.28125 0.40625 -0.6875 0.6875q-0.390625 0.28125 -0.890625 0.4375q-0.5 0.15625 -1.078125 0.15625zm7.692322 0q-1.015625 0 -1.78125 -0.46875q-0.765625 -0.46875 -1.1875 -1.3125q-0.421875 -0.859375 -0.421875 -1.96875q0 -1.140625 0.421875 -1.984375q0.421875 -0.859375 1.1875 -1.3125q0.765625 -0.46875 1.78125 -0.46875q1.03125 0 1.796875 0.46875q0.765625 0.453125 1.1875 1.3125q0.421875 0.84375 0.421875 1.984375q0 1.109375 -0.421875 1.96875q-0.421875 0.84375 -1.1875 1.3125q-0.765625 0.46875 -1.796875 0.46875zm0 -1.21875q0.671875 0 1.09375 -0.34375q0.4375 -0.34375 0.640625 -0.921875q0.21875 -0.578125 0.21875 -1.265625q0 -0.703125 -0.21875 -1.28125q-0.203125 -0.578125 -0.640625 -0.921875q-0.421875 -0.359375 -1.09375 -0.359375q-0.65625 0 -1.09375 0.359375q-0.421875 0.34375 -0.640625 0.921875q-0.203125 0.578125 -0.203125 1.28125q0 0.6875 0.203125 1.265625q0.21875 0.578125 0.640625 0.921875q0.4375 0.34375 1.09375 0.34375zm6.425232 -3.25l0 4.3125l-1.421875 0l0 -7.28125l1.359375 0l0.015625 1.78125l-0.15625 0q0.328125 -0.96875 0.921875 -1.40625q0.609375 -0.453125 1.46875 -0.453125q0.75 0 1.296875 0.3125q0.5625 0.3125 0.859375 0.921875q0.3125 0.59375 0.3125 1.5l0 4.625l-1.421875 0l0 -4.4375q0 -0.796875 -0.421875 -1.234375q-0.40625 -0.453125 -1.109375 -0.453125q-0.484375 0 -0.875 0.21875q-0.375 0.21875 -0.609375 0.625q-0.21875 0.390625 -0.21875 0.96875zm9.6427 4.46875q-1.015625 0 -1.78125 -0.46875q-0.765625 -0.46875 -1.1875 -1.3125q-0.421875 -0.859375 -0.421875 -1.96875q0 -1.140625 0.421875 -1.984375q0.421875 -0.859375 1.1875 -1.3125q0.765625 -0.46875 1.78125 -0.46875q0.578125 0 1.0625 0.140625q0.5 0.140625 0.890625 0.421875q0.40625 0.28125 0.6875 0.6875q0.28125 0.390625 0.40625 0.890625l-1.359375 0.328125q-0.0625 -0.28125 -0.21875 -0.515625q-0.140625 -0.234375 -0.359375 -0.390625q-0.21875 -0.171875 -0.5 -0.265625q-0.265625 -0.09375 -0.59375 -0.09375q-0.65625 0 -1.09375 0.359375q-0.4375 0.34375 -0.65625 0.921875q-0.203125 0.578125 -0.203125 1.28125q0 0.6875 0.203125 1.265625q0.21875 0.578125 0.65625 0.921875q0.4375 0.34375 1.09375 0.34375q0.328125 0 0.609375 -0.09375q0.28125 -0.09375 0.5 -0.265625q0.234375 -0.171875 0.375 -0.40625q0.15625 -0.25 0.21875 -0.546875l1.359375 0.328125q-0.140625 0.515625 -0.421875 0.921875q-0.28125 0.40625 -0.6875 0.6875q-0.390625 0.28125 -0.890625 0.4375q-0.5 0.15625 -1.078125 0.15625zm6.806885 0q-0.6875 0 -1.25 -0.25q-0.5625 -0.25 -0.890625 -0.75q-0.3125 -0.5 -0.3125 -1.21875q0 -0.609375 0.234375 -1.0q0.234375 -0.40625 0.640625 -0.640625q0.40625 -0.234375 0.90625 -0.34375q0.5 -0.125 1.015625 -0.1875q0.640625 -0.078125 1.046875 -0.125q0.40625 -0.046875 0.59375 -0.15625q0.1875 -0.125 0.1875 -0.375l0 -0.03125q0 -0.421875 -0.15625 -0.6875q-0.15625 -0.28125 -0.46875 -0.4375q-0.296875 -0.15625 -0.765625 -0.15625q-0.46875 0 -0.8125 0.15625q-0.34375 0.140625 -0.5625 0.375q-0.203125 0.21875 -0.3125 0.46875l-1.34375 -0.359375q0.25 -0.640625 0.703125 -1.03125q0.46875 -0.40625 1.0625 -0.578125q0.609375 -0.1875 1.234375 -0.1875q0.453125 0 0.9375 0.109375q0.5 0.09375 0.9375 0.375q0.4375 0.265625 0.703125 0.765625q0.28125 0.484375 0.28125 1.28125l0 4.828125l-1.390625 0l0 -1.0l-0.078125 0q-0.140625 0.28125 -0.421875 0.546875q-0.28125 0.265625 -0.703125 0.4375q-0.421875 0.171875 -1.015625 0.171875zm0.3125 -1.140625q0.59375 0 1.0 -0.21875q0.421875 -0.234375 0.640625 -0.609375q0.234375 -0.390625 0.234375 -0.8125l0 -0.921875q-0.078125 0.078125 -0.296875 0.140625q-0.21875 0.0625 -0.5 0.109375q-0.28125 0.046875 -0.546875 0.078125q-0.265625 0.03125 -0.421875 0.046875q-0.40625 0.046875 -0.75 0.171875q-0.328125 0.125 -0.53125 0.359375q-0.1875 0.21875 -0.1875 0.609375q0 0.34375 0.171875 0.578125q0.171875 0.234375 0.484375 0.359375q0.3125 0.109375 0.703125 0.109375zm7.0947266 0.984375l-2.75 -7.28125l1.546875 0l1.4375 4.140625q0.25 0.6875 0.40625 1.375q0.171875 0.671875 0.359375 1.359375l-0.421875 0q0.1875 -0.6875 0.34375 -1.359375q0.171875 -0.6875 0.40625 -1.375l1.4375 -4.140625l1.546875 0l-2.75 7.28125l-1.5625 0zm8.452728 0.15625q-1.0625 0 -1.84375 -0.46875q-0.78125 -0.46875 -1.203125 -1.296875q-0.421875 -0.84375 -0.421875 -1.96875q0 -1.125 0.40625 -1.96875q0.421875 -0.859375 1.171875 -1.328125q0.765625 -0.484375 1.765625 -0.484375q0.625 0 1.203125 0.203125q0.59375 0.203125 1.046875 0.640625q0.46875 0.4375 0.734375 1.125q0.265625 0.6875 0.265625 1.6875l0 0.5l-5.796875 0l0 -1.0625l5.0625 0l-0.671875 0.34375q0 -0.671875 -0.203125 -1.171875q-0.203125 -0.515625 -0.609375 -0.796875q-0.40625 -0.296875 -1.03125 -0.296875q-0.59375 0 -1.03125 0.296875q-0.421875 0.296875 -0.65625 0.78125q-0.21875 0.46875 -0.21875 1.03125l0 0.734375q0 0.75 0.25 1.265625q0.265625 0.515625 0.71875 0.78125q0.46875 0.265625 1.078125 0.265625q0.40625 0 0.734375 -0.109375q0.328125 -0.125 0.5625 -0.34375q0.234375 -0.234375 0.359375 -0.578125l1.34375 0.3125q-0.171875 0.5625 -0.59375 1.0q-0.40625 0.421875 -1.03125 0.671875q-0.609375 0.234375 -1.390625 0.234375z" fill-rule="nonzero"/><path fill="#000000" fill-opacity="0.0" d="m-22.234661 152.27634l128.18898 0l0 35.55905l-128.18898 0z" fill-rule="evenodd"/><path fill="#000000" d="m22.912548 174.23257q-1.015625 0 -1.78125 -0.46875q-0.765625 -0.46875 -1.1875 -1.3125q-0.421875 -0.859375 -0.421875 -1.96875q0 -1.140625 0.421875 -1.984375q0.421875 -0.859375 1.1875 -1.3125q0.765625 -0.46875 1.78125 -0.46875q0.578125 0 1.0625 0.140625q0.5 0.140625 0.890625 0.421875q0.40625 0.28125 0.6875 0.6875q0.28125 0.390625 0.40625 0.890625l-1.359375 0.328125q-0.0625 -0.28125 -0.21875 -0.515625q-0.140625 -0.234375 -0.359375 -0.390625q-0.21875 -0.171875 -0.5 -0.265625q-0.265625 -0.09375 -0.59375 -0.09375q-0.65625 0 -1.09375 0.359375q-0.4375 0.34375 -0.65625 0.921875q-0.203125 0.578125 -0.203125 1.28125q0 0.6875 0.203125 1.265625q0.21875 0.578125 0.65625 0.921875q0.4375 0.34375 1.09375 0.34375q0.328125 0 0.609375 -0.09375q0.28125 -0.09375 0.5 -0.265625q0.234375 -0.171875 0.375 -0.40625q0.15625 -0.25 0.21875 -0.546875l1.359375 0.328125q-0.140625 0.515625 -0.421875 0.921875q-0.28125 0.40625 -0.6875 0.6875q-0.390625 0.28125 -0.890625 0.4375q-0.5 0.15625 -1.078125 0.15625zm7.6923065 0q-1.015625 0 -1.78125 -0.46875q-0.765625 -0.46875 -1.1875 -1.3125q-0.421875 -0.859375 -0.421875 -1.96875q0 -1.140625 0.421875 -1.984375q0.421875 -0.859375 1.1875 -1.3125q0.765625 -0.46875 1.78125 -0.46875q1.03125 0 1.796875 0.46875q0.765625 0.453125 1.1875 1.3125q0.421875 0.84375 0.421875 1.984375q0 1.109375 -0.421875 1.96875q-0.421875 0.84375 -1.1875 1.3125q-0.765625 0.46875 -1.796875 0.46875zm0 -1.21875q0.671875 0 1.09375 -0.34375q0.4375 -0.34375 0.640625 -0.921875q0.21875 -0.578125 0.21875 -1.265625q0 -0.703125 -0.21875 -1.28125q-0.203125 -0.578125 -0.640625 -0.921875q-0.421875 -0.359375 -1.09375 -0.359375q-0.65625 0 -1.09375 0.359375q-0.421875 0.34375 -0.640625 0.921875q-0.203125 0.578125 -0.203125 1.28125q0 0.6875 0.203125 1.265625q0.21875 0.578125 0.640625 0.921875q0.4375 0.34375 1.09375 0.34375zm6.425247 -3.25l0 4.3125l-1.421875 0l0 -7.28125l1.359375 0l0.015625 1.78125l-0.15625 0q0.328125 -0.96875 0.921875 -1.40625q0.609375 -0.453125 1.46875 -0.453125q0.75 0 1.296875 0.3125q0.5625 0.3125 0.859375 0.921875q0.3125 0.59375 0.3125 1.5l0 4.625l-1.421875 0l0 -4.4375q0 -0.796875 -0.421875 -1.234375q-0.40625 -0.453125 -1.109375 -0.453125q-0.484375 0 -0.875 0.21875q-0.375 0.21875 -0.609375 0.625q-0.21875 0.390625 -0.21875 0.96875zm8.465622 4.3125l-2.75 -7.28125l1.546875 0l1.4375 4.140625q0.25 0.6875 0.40625 1.375q0.171875 0.671875 0.359375 1.359375l-0.421875 0q0.1875 -0.6875 0.34375 -1.359375q0.171875 -0.6875 0.40625 -1.375l1.4375 -4.140625l1.546875 0l-2.75 7.28125l-1.5625 0zm8.452744 0.15625q-1.0625 0 -1.84375 -0.46875q-0.78125 -0.46875 -1.203125 -1.296875q-0.421875 -0.84375 -0.421875 -1.96875q0 -1.125 0.40625 -1.96875q0.421875 -0.859375 1.171875 -1.328125q0.765625 -0.484375 1.765625 -0.484375q0.625 0 1.203125 0.203125q0.59375 0.203125 1.046875 0.640625q0.46875 0.4375 0.734375 1.125q0.265625 0.6875 0.265625 1.6875l0 0.5l-5.796875 0l0 -1.0625l5.0625 0l-0.671875 0.34375q0 -0.671875 -0.203125 -1.171875q-0.203125 -0.515625 -0.609375 -0.796875q-0.40625 -0.296875 -1.03125 -0.296875q-0.59375 0 -1.03125 0.296875q-0.421875 0.296875 -0.65625 0.78125q-0.21875 0.46875 -0.21875 1.03125l0 0.734375q0 0.75 0.25 1.265625q0.265625 0.515625 0.71875 0.78125q0.46875 0.265625 1.078125 0.265625q0.40625 0 0.734375 -0.109375q0.328125 -0.125 0.5625 -0.34375q0.234375 -0.234375 0.359375 -0.578125l1.34375 0.3125q-0.171875 0.5625 -0.59375 1.0q-0.40625 0.421875 -1.03125 0.671875q-0.609375 0.234375 -1.390625 0.234375zm3.8237762 -0.15625l2.859375 -4.28125l-0.015625 1.09375l-2.703125 -4.09375l1.625 0l0.8125 1.328125q0.34375 0.546875 0.59375 1.046875q0.265625 0.5 0.53125 0.96875l-0.65625 0q0.28125 -0.46875 0.515625 -0.96875q0.234375 -0.5 0.578125 -1.046875l0.84375 -1.328125l1.5781212 0l-2.7187462 4.140625l0 -1.078125l2.8281212 4.21875l-1.5937462 0l-0.984375 -1.546875q-0.34375 -0.546875 -0.59375 -1.03125q-0.25 -0.484375 -0.515625 -0.9375l0.65625 0q-0.25 0.453125 -0.484375 0.9375q-0.234375 0.484375 -0.578125 1.03125l-0.984375 1.546875l-1.59375 0z" fill-rule="nonzero"/><path fill="#000000" fill-opacity="0.0" d="m-32.52852 413.93832l128.18896 0l0 35.55905l-128.18896 0z" fill-rule="evenodd"/><path fill="#000000" d="m10.982726 435.7383l-2.75 -7.28125l1.546875 0l1.4375 4.140625q0.25 0.6875 0.40625 1.375q0.171875 0.671875 0.359375 1.359375l-0.421875 0q0.1875 -0.6875 0.34375 -1.359375q0.171875 -0.6875 0.40625 -1.375l1.4375 -4.140625l1.546875 0l-2.75 7.28125l-1.5625 0zm8.452743 0.15625q-1.0625 0 -1.84375 -0.46875q-0.78125 -0.46875 -1.203125 -1.296875q-0.42187405 -0.84375 -0.42187405 -1.96875q0 -1.125 0.40624905 -1.96875q0.421875 -0.859375 1.171875 -1.328125q0.765625 -0.484375 1.765625 -0.484375q0.625 0 1.203125 0.203125q0.59375 0.203125 1.046875 0.640625q0.46875 0.4375 0.734375 1.125q0.265625 0.6875 0.265625 1.6875l0 0.5l-5.796875 0l0 -1.0625l5.0625 0l-0.671875 0.34375q0 -0.671875 -0.203125 -1.171875q-0.203125 -0.515625 -0.609375 -0.796875q-0.40625 -0.296875 -1.03125 -0.296875q-0.59375 0 -1.03125 0.296875q-0.421875 0.296875 -0.65625 0.78125q-0.21875 0.46875 -0.21875 1.03125l0 0.734375q0 0.75 0.25 1.265625q0.265625 0.515625 0.71875 0.78125q0.46875 0.265625 1.078125 0.265625q0.40625 0 0.734375 -0.109375q0.328125 -0.125 0.5625 -0.34375q0.234375 -0.234375 0.359375 -0.578125l1.34375 0.3125q-0.171875 0.5625 -0.59375 1.0q-0.40625 0.421875 -1.03125 0.671875q-0.609375 0.234375 -1.390625 0.234375zm4.7039795 -0.15625l0 -7.28125l1.375 0l0 1.171875l0.078125 0q0.203125 -0.59375 0.703125 -0.921875q0.5 -0.34375 1.140625 -0.34375q0.140625 0 0.3125 0.015625q0.171875 0 0.296875 0.015625l0 1.375q-0.078125 -0.03125 -0.296875 -0.046875q-0.21875 -0.03125 -0.453125 -0.03125q-0.5 0 -0.890625 0.203125q-0.390625 0.203125 -0.625 0.578125q-0.21875 0.359375 -0.21875 0.84375l0 4.421875l-1.421875 0zm8.491472 -7.28125l0 1.171875l-3.953127 0l0 -1.171875l3.953127 0zm-2.890627 -1.71875l1.4375 0l0 7.03125q0 0.4375 0.1875 0.640625q0.1875 0.203125 0.609375 0.203125q0.10937691 0 0.2812519 -0.015625q0.1875 -0.03125 0.3125 -0.0625l0.265625 1.15625q-0.234375 0.078125 -0.5 0.109375q-0.25 0.03125 -0.5000019 0.03125q-1.0 0 -1.546875 -0.5q-0.546875 -0.515625 -0.546875 -1.4375l0 -7.15625zm4.3172474 9.0l0 -7.28125l1.421875 0l0 7.28125l-1.421875 0zm0.71875 -8.390625q-0.375 0 -0.640625 -0.25q-0.265625 -0.25 -0.265625 -0.59375q0 -0.359375 0.265625 -0.609375q0.265625 -0.25 0.640625 -0.25q0.359375 0 0.625 0.25q0.265625 0.25 0.265625 0.609375q0 0.34375 -0.265625 0.59375q-0.265625 0.25 -0.625 0.25zm5.6861877 8.546875q-1.015625 0 -1.78125 -0.46875q-0.765625 -0.46875 -1.1875 -1.3125q-0.421875 -0.859375 -0.421875 -1.96875q0 -1.140625 0.421875 -1.984375q0.421875 -0.859375 1.1875 -1.3125q0.765625 -0.46875 1.78125 -0.46875q0.578125 0 1.0625 0.140625q0.5 0.140625 0.890625 0.421875q0.40625 0.28125 0.6875 0.6875q0.28125 0.390625 0.40625 0.890625l-1.359375 0.328125q-0.0625 -0.28125 -0.21875 -0.515625q-0.140625 -0.234375 -0.359375 -0.390625q-0.21875 -0.171875 -0.5 -0.265625q-0.265625 -0.09375 -0.59375 -0.09375q-0.65625 0 -1.09375 0.359375q-0.4375 0.34375 -0.65625 0.921875q-0.203125 0.578125 -0.203125 1.28125q0 0.6875 0.203125 1.265625q0.21875 0.578125 0.65625 0.921875q0.4375 0.34375 1.09375 0.34375q0.328125 0 0.609375 -0.09375q0.28125 -0.09375 0.5 -0.265625q0.234375 -0.171875 0.375 -0.40625q0.15625 -0.25 0.21875 -0.546875l1.359375 0.328125q-0.140625 0.515625 -0.421875 0.921875q-0.28125 0.40625 -0.6875 0.6875q-0.390625 0.28125 -0.890625 0.4375q-0.5 0.15625 -1.078125 0.15625zm6.806885 0q-0.6875 0 -1.25 -0.25q-0.5625 -0.25 -0.890625 -0.75q-0.3125 -0.5 -0.3125 -1.21875q0 -0.609375 0.234375 -1.0q0.234375 -0.40625 0.640625 -0.640625q0.40625 -0.234375 0.90625 -0.34375q0.5 -0.125 1.015625 -0.1875q0.640625 -0.078125 1.046875 -0.125q0.40625 -0.046875 0.59375 -0.15625q0.1875 -0.125 0.1875 -0.375l0 -0.03125q0 -0.421875 -0.15625 -0.6875q-0.15625 -0.28125 -0.46875 -0.4375q-0.296875 -0.15625 -0.765625 -0.15625q-0.46875 0 -0.8125 0.15625q-0.34375 0.140625 -0.5625 0.375q-0.203125 0.21875 -0.3125 0.46875l-1.34375 -0.359375q0.25 -0.640625 0.703125 -1.03125q0.46875 -0.40625 1.0625 -0.578125q0.609375 -0.1875 1.234375 -0.1875q0.453125 0 0.9375 0.109375q0.5 0.09375 0.9375 0.375q0.4375 0.265625 0.703125 0.765625q0.28125 0.484375 0.28125 1.28125l0 4.828125l-1.390625 0l0 -1.0l-0.078125 0q-0.140625 0.28125 -0.421875 0.546875q-0.28125 0.265625 -0.703125 0.4375q-0.421875 0.171875 -1.015625 0.171875zm0.3125 -1.140625q0.59375 0 1.0 -0.21875q0.421875 -0.234375 0.640625 -0.609375q0.234375 -0.390625 0.234375 -0.8125l0 -0.921875q-0.078125 0.078125 -0.296875 0.140625q-0.21875 0.0625 -0.5 0.109375q-0.28125 0.046875 -0.546875 0.078125q-0.265625 0.03125 -0.421875 0.046875q-0.40625 0.046875 -0.75 0.171875q-0.328125 0.125 -0.53125 0.359375q-0.1875 0.21875 -0.1875 0.609375q0 0.34375 0.171875 0.578125q0.171875 0.234375 0.484375 0.359375q0.3125 0.109375 0.703125 0.109375zm6.6467896 -8.71875l0 9.703125l-1.421875 0l0 -9.703125l1.421875 0z" fill-rule="nonzero"/><path fill="#000000" fill-opacity="0.0" d="m155.50325 49.867554l128.18898 0l0 35.55905l-128.18898 0z" fill-rule="evenodd"/><path fill="#000000" d="m206.19833 71.8238q-1.015625 0 -1.78125 -0.46875q-0.765625 -0.46875 -1.1875 -1.3125q-0.421875 -0.859375 -0.421875 -1.96875q0 -1.140625 0.421875 -1.984375q0.421875 -0.859375 1.1875 -1.3125q0.765625 -0.46875 1.78125 -0.46875q0.578125 0 1.0625 0.140625q0.5 0.140625 0.890625 0.421875q0.40625 0.28125 0.6875 0.6875q0.28125 0.390625 0.40625 0.890625l-1.359375 0.328125q-0.0625 -0.28125 -0.21875 -0.515625q-0.140625 -0.234375 -0.359375 -0.390625q-0.21875 -0.171875 -0.5 -0.265625q-0.265625 -0.09375 -0.59375 -0.09375q-0.65625 0 -1.09375 0.359375q-0.4375 0.34375 -0.65625 0.921875q-0.203125 0.578125 -0.203125 1.28125q0 0.6875 0.203125 1.265625q0.21875 0.578125 0.65625 0.921875q0.4375 0.34375 1.09375 0.34375q0.328125 0 0.609375 -0.09375q0.28125 -0.09375 0.5 -0.265625q0.234375 -0.171875 0.375 -0.40625q0.15625 -0.25 0.21875 -0.546875l1.359375 0.328125q-0.140625 0.515625 -0.421875 0.921875q-0.28125 0.40625 -0.6875 0.6875q-0.390625 0.28125 -0.890625 0.4375q-0.5 0.15625 -1.078125 0.15625zm4.6454315 -0.15625l0 -7.28125l1.421875 0l0 7.28125l-1.421875 0zm0.71875 -8.390621q-0.375 0 -0.640625 -0.25q-0.265625 -0.25 -0.265625 -0.59375q0 -0.359375 0.265625 -0.609375q0.265625 -0.25 0.640625 -0.25q0.359375 0 0.625 0.25q0.265625 0.25 0.265625 0.609375q0 0.34375 -0.265625 0.59375q-0.265625 0.25 -0.625 0.25zm2.6393127 8.390621l0 -7.28125l1.375 0l0 1.171875l0.078125 0q0.203125 -0.59375 0.703125 -0.921875q0.5 -0.34375 1.140625 -0.34375q0.140625 0 0.3125 0.015625q0.171875 0 0.296875 0.015625l0 1.375q-0.078125 -0.03125 -0.296875 -0.046875q-0.21875 -0.03125 -0.453125 -0.03125q-0.5 0 -0.890625 0.203125q-0.390625 0.203125 -0.625 0.578125q-0.21875 0.359375 -0.21875 0.84375l0 4.421875l-1.421875 0zm7.9472046 0.15625q-1.015625 0 -1.78125 -0.46875q-0.765625 -0.46875 -1.1875 -1.3125q-0.421875 -0.859375 -0.421875 -1.96875q0 -1.140625 0.421875 -1.984375q0.421875 -0.859375 1.1875 -1.3125q0.765625 -0.46875 1.78125 -0.46875q0.578125 0 1.0625 0.140625q0.5 0.140625 0.890625 0.421875q0.40625 0.28125 0.6875 0.6875q0.28125 0.390625 0.40625 0.890625l-1.359375 0.328125q-0.0625 -0.28125 -0.21875 -0.515625q-0.140625 -0.234375 -0.359375 -0.390625q-0.21875 -0.171875 -0.5 -0.265625q-0.265625 -0.09375 -0.59375 -0.09375q-0.65625 0 -1.09375 0.359375q-0.4375 0.34375 -0.65625 0.921875q-0.203125 0.578125 -0.203125 1.28125q0 0.6875 0.203125 1.265625q0.21875 0.578125 0.65625 0.921875q0.4375 0.34375 1.09375 0.34375q0.328125 0 0.609375 -0.09375q0.28125 -0.09375 0.5 -0.265625q0.234375 -0.171875 0.375 -0.40625q0.15625 -0.25 0.21875 -0.546875l1.359375 0.328125q-0.140625 0.515625 -0.421875 0.921875q-0.28125 0.40625 -0.6875 0.6875q-0.390625 0.28125 -0.890625 0.4375q-0.5 0.15625 -1.078125 0.15625zm6.0673065 -9.859371l0 9.703121l-1.421875 0l0 -9.703121l1.421875 0zm5.0611877 9.859371q-1.0625 0 -1.84375 -0.46875q-0.78125 -0.46875 -1.203125 -1.296875q-0.421875 -0.84375 -0.421875 -1.96875q0 -1.125 0.40625 -1.96875q0.421875 -0.859375 1.171875 -1.328125q0.765625 -0.484375 1.765625 -0.484375q0.625 0 1.203125 0.203125q0.59375 0.203125 1.046875 0.640625q0.46875 0.4375 0.734375 1.125q0.265625 0.6875 0.265625 1.6875l0 0.5l-5.796875 0l0 -1.0625l5.0625 0l-0.671875 0.34375q0 -0.671875 -0.203125 -1.171875q-0.203125 -0.515625 -0.609375 -0.796875q-0.40625 -0.296875 -1.03125 -0.296875q-0.59375 0 -1.03125 0.296875q-0.421875 0.296875 -0.65625 0.78125q-0.21875 0.46875 -0.21875 1.03125l0 0.734375q0 0.75 0.25 1.265625q0.265625 0.515625 0.71875 0.78125q0.46875 0.265625 1.078125 0.265625q0.40625 0 0.734375 -0.109375q0.328125 -0.125 0.5625 -0.34375q0.234375 -0.234375 0.359375 -0.578125l1.34375 0.3125q-0.171875 0.5625 -0.59375 1.0q-0.40625 0.421875 -1.03125 0.671875q-0.609375 0.234375 -1.390625 0.234375z" fill-rule="nonzero"/><path fill="#000000" fill-opacity="0.0" d="m337.37582 152.58226l128.189 0l0 51.716537l-128.189 0z" fill-rule="evenodd"/><path fill="#000000" d="m372.10577 170.06976l0 4.3125l-1.421875 0l0 -9.703125l1.40625 0l0 4.203125l-0.1875 0q0.328125 -0.96875 0.921875 -1.40625q0.609375 -0.453125 1.46875 -0.453125q0.75 0 1.296875 0.3125q0.5625 0.3125 0.859375 0.921875q0.3125 0.59375 0.3125 1.5l0 4.625l-1.421875 0l0 -4.4375q0 -0.796875 -0.421875 -1.234375q-0.40625 -0.453125 -1.109375 -0.453125q-0.484375 0 -0.875 0.21875q-0.375 0.21875 -0.609375 0.625q-0.21875 0.390625 -0.21875 0.96875zm9.6427 4.46875q-1.015625 0 -1.78125 -0.46875q-0.765625 -0.46875 -1.1875 -1.3125q-0.421875 -0.859375 -0.421875 -1.96875q0 -1.140625 0.421875 -1.984375q0.421875 -0.859375 1.1875 -1.3125q0.765625 -0.46875 1.78125 -0.46875q1.03125 0 1.796875 0.46875q0.765625 0.453125 1.1875 1.3125q0.421875 0.84375 0.421875 1.984375q0 1.109375 -0.421875 1.96875q-0.421875 0.84375 -1.1875 1.3125q-0.765625 0.46875 -1.796875 0.46875zm0 -1.21875q0.671875 0 1.09375 -0.34375q0.4375 -0.34375 0.640625 -0.921875q0.21875 -0.578125 0.21875 -1.265625q0 -0.703125 -0.21875 -1.28125q-0.203125 -0.578125 -0.640625 -0.921875q-0.421875 -0.359375 -1.09375 -0.359375q-0.65625 0 -1.09375 0.359375q-0.421875 0.34375 -0.640625 0.921875q-0.203125 0.578125 -0.203125 1.28125q0 0.6875 0.203125 1.265625q0.21875 0.578125 0.640625 0.921875q0.4375 0.34375 1.09375 0.34375zm5.003357 1.0625l0 -7.28125l1.375 0l0 1.171875l0.078125 0q0.203125 -0.59375 0.703125 -0.921875q0.5 -0.34375 1.140625 -0.34375q0.140625 0 0.3125 0.015625q0.171875 0 0.296875 0.015625l0 1.375q-0.078125 -0.03125 -0.296875 -0.046875q-0.21875 -0.03125 -0.453125 -0.03125q-0.5 0 -0.890625 0.203125q-0.390625 0.203125 -0.625 0.578125q-0.21875 0.359375 -0.21875 0.84375l0 4.421875l-1.421875 0zm5.258423 0l0 -7.28125l1.421875 0l0 7.28125l-1.421875 0zm0.71875 -8.390625q-0.375 0 -0.640625 -0.25q-0.265625 -0.25 -0.265625 -0.59375q0 -0.359375 0.265625 -0.609375q0.265625 -0.25 0.640625 -0.25q0.359375 0 0.625 0.25q0.265625 0.25 0.265625 0.609375q0 0.34375 -0.265625 0.59375q-0.265625 0.25 -0.625 0.25zm2.4830627 8.390625l0 -0.96875l3.90625 -5.0l0 -0.0625l-3.78125 0l0 -1.25l5.578125 0l0 1.0625l-3.765625 4.90625l0 0.0625l3.890625 0l0 1.25l-5.828125 0zm10.433289 0.15625q-1.015625 0 -1.78125 -0.46875q-0.765625 -0.46875 -1.1875 -1.3125q-0.421875 -0.859375 -0.421875 -1.96875q0 -1.140625 0.421875 -1.984375q0.421875 -0.859375 1.1875 -1.3125q0.765625 -0.46875 1.78125 -0.46875q1.03125 0 1.796875 0.46875q0.765625 0.453125 1.1875 1.3125q0.421875 0.84375 0.421875 1.984375q0 1.109375 -0.421875 1.96875q-0.421875 0.84375 -1.1875 1.3125q-0.765625 0.46875 -1.796875 0.46875zm0 -1.21875q0.671875 0 1.09375 -0.34375q0.4375 -0.34375 0.640625 -0.921875q0.21875 -0.578125 0.21875 -1.265625q0 -0.703125 -0.21875 -1.28125q-0.203125 -0.578125 -0.640625 -0.921875q-0.421875 -0.359375 -1.09375 -0.359375q-0.65625 0 -1.09375 0.359375q-0.421875 0.34375 -0.640625 0.921875q-0.203125 0.578125 -0.203125 1.28125q0 0.6875 0.203125 1.265625q0.21875 0.578125 0.640625 0.921875q0.4375 0.34375 1.09375 0.34375zm6.425232 -3.25l0 4.3125l-1.421875 0l0 -7.28125l1.359375 0l0.015625 1.78125l-0.15625 0q0.328125 -0.96875 0.921875 -1.40625q0.609375 -0.453125 1.46875 -0.453125q0.75 0 1.296875 0.3125q0.5625 0.3125 0.859375 0.921875q0.3125 0.59375 0.3125 1.5l0 4.625l-1.421875 0l0 -4.4375q0 -0.796875 -0.421875 -1.234375q-0.40625 -0.453125 -1.109375 -0.453125q-0.484375 0 -0.875 0.21875q-0.375 0.21875 -0.609375 0.625q-0.21875 0.390625 -0.21875 0.96875zm9.7052 -2.96875l0 1.171875l-3.953125 0l0 -1.171875l3.953125 0zm-2.890625 -1.71875l1.4375 0l0 7.03125q0 0.4375 0.1875 0.640625q0.1875 0.203125 0.609375 0.203125q0.109375 0 0.28125 -0.015625q0.1875 -0.03125 0.3125 -0.0625l0.265625 1.15625q-0.234375 0.078125 -0.5 0.109375q-0.25 0.03125 -0.5 0.03125q-1.0 0 -1.546875 -0.5q-0.546875 -0.515625 -0.546875 -1.4375l0 -7.15625zm6.4136047 9.15625q-0.6875 0 -1.25 -0.25q-0.5625 -0.25 -0.890625 -0.75q-0.3125 -0.5 -0.3125 -1.21875q0 -0.609375 0.234375 -1.0q0.234375 -0.40625 0.640625 -0.640625q0.40625 -0.234375 0.90625 -0.34375q0.5 -0.125 1.015625 -0.1875q0.640625 -0.078125 1.046875 -0.125q0.40625 -0.046875 0.59375 -0.15625q0.1875 -0.125 0.1875 -0.375l0 -0.03125q0 -0.421875 -0.15625 -0.6875q-0.15625 -0.28125 -0.46875 -0.4375q-0.296875 -0.15625 -0.765625 -0.15625q-0.46875 0 -0.8125 0.15625q-0.34375 0.140625 -0.5625 0.375q-0.203125 0.21875 -0.3125 0.46875l-1.34375 -0.359375q0.25 -0.640625 0.703125 -1.03125q0.46875 -0.40625 1.0625 -0.578125q0.609375 -0.1875 1.234375 -0.1875q0.453125 0 0.9375 0.109375q0.5 0.09375 0.9375 0.375q0.4375 0.265625 0.703125 0.765625q0.28125 0.484375 0.28125 1.28125l0 4.828125l-1.390625 0l0 -1.0l-0.078125 0q-0.140625 0.28125 -0.421875 0.546875q-0.28125 0.265625 -0.703125 0.4375q-0.421875 0.171875 -1.015625 0.171875zm0.3125 -1.140625q0.59375 0 1.0 -0.21875q0.421875 -0.234375 0.640625 -0.609375q0.234375 -0.390625 0.234375 -0.8125l0 -0.921875q-0.078125 0.078125 -0.296875 0.140625q-0.21875 0.0625 -0.5 0.109375q-0.28125 0.046875 -0.546875 0.078125q-0.265625 0.03125 -0.421875 0.046875q-0.40625 0.046875 -0.75 0.171875q-0.328125 0.125 -0.53125 0.359375q-0.1875 0.21875 -0.1875 0.609375q0 0.34375 0.171875 0.578125q0.171875 0.234375 0.484375 0.359375q0.3125 0.109375 0.703125 0.109375zm6.6467896 -8.71875l0 9.703125l-1.421875 0l0 -9.703125l1.421875 0z" fill-rule="nonzero"/><path fill="#ffffff" d="m205.05115 337.5977l28.18898 0l0 150.64566l-28.18898 0z" fill-rule="evenodd"/><path stroke="#ffffff" stroke-width="1.0" stroke-linejoin="round" stroke-linecap="butt" d="m205.05115 337.5977l28.18898 0l0 150.64566l-28.18898 0z" fill-rule="evenodd"/></g></svg>